%TF.GenerationSoftware,KiCad,Pcbnew,9.0.0*%
%TF.CreationDate,2025-09-30T20:45:20+05:30*%
%TF.ProjectId,simple_torch,73696d70-6c65-45f7-946f-7263682e6b69,rev?*%
%TF.SameCoordinates,Original*%
%TF.FileFunction,Legend,Bot*%
%TF.FilePolarity,Positive*%
%FSLAX46Y46*%
G04 Gerber Fmt 4.6, Leading zero omitted, Abs format (unit mm)*
G04 Created by KiCad (PCBNEW 9.0.0) date 2025-09-30 20:45:20*
%MOMM*%
%LPD*%
G01*
G04 APERTURE LIST*
%ADD10C,0.150000*%
%ADD11C,0.010000*%
G04 APERTURE END LIST*
D10*
X129034819Y-95616666D02*
X128558628Y-95949999D01*
X129034819Y-96188094D02*
X128034819Y-96188094D01*
X128034819Y-96188094D02*
X128034819Y-95807142D01*
X128034819Y-95807142D02*
X128082438Y-95711904D01*
X128082438Y-95711904D02*
X128130057Y-95664285D01*
X128130057Y-95664285D02*
X128225295Y-95616666D01*
X128225295Y-95616666D02*
X128368152Y-95616666D01*
X128368152Y-95616666D02*
X128463390Y-95664285D01*
X128463390Y-95664285D02*
X128511009Y-95711904D01*
X128511009Y-95711904D02*
X128558628Y-95807142D01*
X128558628Y-95807142D02*
X128558628Y-96188094D01*
X129034819Y-94664285D02*
X129034819Y-95235713D01*
X129034819Y-94949999D02*
X128034819Y-94949999D01*
X128034819Y-94949999D02*
X128177676Y-95045237D01*
X128177676Y-95045237D02*
X128272914Y-95140475D01*
X128272914Y-95140475D02*
X128320533Y-95235713D01*
D11*
%TO.C,REF\u002A\u002A*%
X155355406Y-97274949D02*
X155381127Y-97290647D01*
X155407778Y-97312227D01*
X155407778Y-97959684D01*
X155381127Y-97981264D01*
X155349767Y-97998739D01*
X155313966Y-97999575D01*
X155282528Y-97979082D01*
X155278652Y-97974416D01*
X155273186Y-97964949D01*
X155268979Y-97951267D01*
X155265867Y-97930748D01*
X155263687Y-97900768D01*
X155262276Y-97858704D01*
X155261471Y-97801932D01*
X155261107Y-97727830D01*
X155261022Y-97633773D01*
X155261022Y-97312227D01*
X155287673Y-97290647D01*
X155311386Y-97275877D01*
X155334400Y-97269067D01*
X155355406Y-97274949D01*
G36*
X155355406Y-97274949D02*
G01*
X155381127Y-97290647D01*
X155407778Y-97312227D01*
X155407778Y-97959684D01*
X155381127Y-97981264D01*
X155349767Y-97998739D01*
X155313966Y-97999575D01*
X155282528Y-97979082D01*
X155278652Y-97974416D01*
X155273186Y-97964949D01*
X155268979Y-97951267D01*
X155265867Y-97930748D01*
X155263687Y-97900768D01*
X155262276Y-97858704D01*
X155261471Y-97801932D01*
X155261107Y-97727830D01*
X155261022Y-97633773D01*
X155261022Y-97312227D01*
X155287673Y-97290647D01*
X155311386Y-97275877D01*
X155334400Y-97269067D01*
X155355406Y-97274949D01*
G37*
X162486137Y-97273463D02*
X162520291Y-97296776D01*
X162548000Y-97324485D01*
X162548000Y-97637537D01*
X162547959Y-97721567D01*
X162547701Y-97795789D01*
X162547030Y-97852541D01*
X162545752Y-97894512D01*
X162543673Y-97924389D01*
X162540599Y-97944861D01*
X162536334Y-97958614D01*
X162530684Y-97968337D01*
X162523455Y-97976717D01*
X162491991Y-97998181D01*
X162456826Y-97999947D01*
X162423822Y-97980267D01*
X162418516Y-97974398D01*
X162413066Y-97965314D01*
X162408900Y-97951973D01*
X162405846Y-97931757D01*
X162403732Y-97902049D01*
X162402386Y-97860232D01*
X162401638Y-97803689D01*
X162401314Y-97729802D01*
X162401245Y-97635956D01*
X162401284Y-97560294D01*
X162401539Y-97482385D01*
X162402183Y-97422375D01*
X162403387Y-97377648D01*
X162405324Y-97345585D01*
X162408164Y-97323571D01*
X162412079Y-97308987D01*
X162417242Y-97299218D01*
X162423822Y-97291645D01*
X162453006Y-97272623D01*
X162486137Y-97273463D01*
G36*
X162486137Y-97273463D02*
G01*
X162520291Y-97296776D01*
X162548000Y-97324485D01*
X162548000Y-97637537D01*
X162547959Y-97721567D01*
X162547701Y-97795789D01*
X162547030Y-97852541D01*
X162545752Y-97894512D01*
X162543673Y-97924389D01*
X162540599Y-97944861D01*
X162536334Y-97958614D01*
X162530684Y-97968337D01*
X162523455Y-97976717D01*
X162491991Y-97998181D01*
X162456826Y-97999947D01*
X162423822Y-97980267D01*
X162418516Y-97974398D01*
X162413066Y-97965314D01*
X162408900Y-97951973D01*
X162405846Y-97931757D01*
X162403732Y-97902049D01*
X162402386Y-97860232D01*
X162401638Y-97803689D01*
X162401314Y-97729802D01*
X162401245Y-97635956D01*
X162401284Y-97560294D01*
X162401539Y-97482385D01*
X162402183Y-97422375D01*
X162403387Y-97377648D01*
X162405324Y-97345585D01*
X162408164Y-97323571D01*
X162412079Y-97308987D01*
X162417242Y-97299218D01*
X162423822Y-97291645D01*
X162453006Y-97272623D01*
X162486137Y-97273463D01*
G37*
X161954562Y-92032850D02*
X162037313Y-92060053D01*
X162112406Y-92105484D01*
X162184298Y-92171302D01*
X162222846Y-92215567D01*
X162262256Y-92273961D01*
X162287446Y-92334586D01*
X162300861Y-92403865D01*
X162304948Y-92488222D01*
X162304669Y-92534307D01*
X162302460Y-92575450D01*
X162296894Y-92607582D01*
X162286586Y-92638122D01*
X162270148Y-92674489D01*
X162256200Y-92701728D01*
X162197665Y-92787429D01*
X162125619Y-92856617D01*
X162041947Y-92907741D01*
X161948531Y-92939250D01*
X161915434Y-92946225D01*
X161874960Y-92953094D01*
X161841999Y-92954919D01*
X161807698Y-92951947D01*
X161763200Y-92944426D01*
X161711934Y-92932002D01*
X161621434Y-92894112D01*
X161542345Y-92839836D01*
X161476528Y-92771770D01*
X161425840Y-92692511D01*
X161392140Y-92604654D01*
X161377286Y-92510795D01*
X161383136Y-92413530D01*
X161409399Y-92317220D01*
X161454418Y-92228494D01*
X161515373Y-92153419D01*
X161590184Y-92093641D01*
X161676768Y-92050809D01*
X161773043Y-92026571D01*
X161876928Y-92022576D01*
X161954562Y-92032850D01*
G36*
X161954562Y-92032850D02*
G01*
X162037313Y-92060053D01*
X162112406Y-92105484D01*
X162184298Y-92171302D01*
X162222846Y-92215567D01*
X162262256Y-92273961D01*
X162287446Y-92334586D01*
X162300861Y-92403865D01*
X162304948Y-92488222D01*
X162304669Y-92534307D01*
X162302460Y-92575450D01*
X162296894Y-92607582D01*
X162286586Y-92638122D01*
X162270148Y-92674489D01*
X162256200Y-92701728D01*
X162197665Y-92787429D01*
X162125619Y-92856617D01*
X162041947Y-92907741D01*
X161948531Y-92939250D01*
X161915434Y-92946225D01*
X161874960Y-92953094D01*
X161841999Y-92954919D01*
X161807698Y-92951947D01*
X161763200Y-92944426D01*
X161711934Y-92932002D01*
X161621434Y-92894112D01*
X161542345Y-92839836D01*
X161476528Y-92771770D01*
X161425840Y-92692511D01*
X161392140Y-92604654D01*
X161377286Y-92510795D01*
X161383136Y-92413530D01*
X161409399Y-92317220D01*
X161454418Y-92228494D01*
X161515373Y-92153419D01*
X161590184Y-92093641D01*
X161676768Y-92050809D01*
X161773043Y-92026571D01*
X161876928Y-92022576D01*
X161954562Y-92032850D01*
G37*
X154655767Y-97269068D02*
X154749890Y-97269158D01*
X154824405Y-97269498D01*
X154881811Y-97270239D01*
X154924611Y-97271535D01*
X154955304Y-97273537D01*
X154976391Y-97276396D01*
X154990373Y-97280266D01*
X154999750Y-97285298D01*
X155007022Y-97291645D01*
X155025828Y-97324362D01*
X155027275Y-97361939D01*
X155010917Y-97395178D01*
X155009557Y-97396631D01*
X154998354Y-97404992D01*
X154981252Y-97410547D01*
X154954082Y-97413840D01*
X154912678Y-97415418D01*
X154852873Y-97415822D01*
X154713511Y-97415822D01*
X154713511Y-97679589D01*
X154713436Y-97755417D01*
X154713028Y-97822083D01*
X154712046Y-97871867D01*
X154710250Y-97907784D01*
X154707399Y-97932850D01*
X154703253Y-97950081D01*
X154697571Y-97962492D01*
X154690114Y-97973100D01*
X154687824Y-97975906D01*
X154656646Y-97998548D01*
X154622266Y-98000112D01*
X154589334Y-97980267D01*
X154582355Y-97972191D01*
X154576883Y-97961593D01*
X154572863Y-97945749D01*
X154570072Y-97921773D01*
X154568288Y-97886774D01*
X154567289Y-97837864D01*
X154566852Y-97772154D01*
X154566756Y-97686756D01*
X154566756Y-97415822D01*
X154420820Y-97415822D01*
X154409720Y-97415821D01*
X154353202Y-97415596D01*
X154314358Y-97414457D01*
X154288965Y-97411657D01*
X154272804Y-97406450D01*
X154261652Y-97398089D01*
X154251289Y-97385826D01*
X154235441Y-97355138D01*
X154238543Y-97321358D01*
X154264187Y-97288822D01*
X154269129Y-97285105D01*
X154279338Y-97280269D01*
X154294764Y-97276506D01*
X154317886Y-97273683D01*
X154351183Y-97271670D01*
X154397137Y-97270333D01*
X154458228Y-97269542D01*
X154536935Y-97269163D01*
X154635740Y-97269067D01*
X154655767Y-97269068D01*
G36*
X154655767Y-97269068D02*
G01*
X154749890Y-97269158D01*
X154824405Y-97269498D01*
X154881811Y-97270239D01*
X154924611Y-97271535D01*
X154955304Y-97273537D01*
X154976391Y-97276396D01*
X154990373Y-97280266D01*
X154999750Y-97285298D01*
X155007022Y-97291645D01*
X155025828Y-97324362D01*
X155027275Y-97361939D01*
X155010917Y-97395178D01*
X155009557Y-97396631D01*
X154998354Y-97404992D01*
X154981252Y-97410547D01*
X154954082Y-97413840D01*
X154912678Y-97415418D01*
X154852873Y-97415822D01*
X154713511Y-97415822D01*
X154713511Y-97679589D01*
X154713436Y-97755417D01*
X154713028Y-97822083D01*
X154712046Y-97871867D01*
X154710250Y-97907784D01*
X154707399Y-97932850D01*
X154703253Y-97950081D01*
X154697571Y-97962492D01*
X154690114Y-97973100D01*
X154687824Y-97975906D01*
X154656646Y-97998548D01*
X154622266Y-98000112D01*
X154589334Y-97980267D01*
X154582355Y-97972191D01*
X154576883Y-97961593D01*
X154572863Y-97945749D01*
X154570072Y-97921773D01*
X154568288Y-97886774D01*
X154567289Y-97837864D01*
X154566852Y-97772154D01*
X154566756Y-97686756D01*
X154566756Y-97415822D01*
X154420820Y-97415822D01*
X154409720Y-97415821D01*
X154353202Y-97415596D01*
X154314358Y-97414457D01*
X154288965Y-97411657D01*
X154272804Y-97406450D01*
X154261652Y-97398089D01*
X154251289Y-97385826D01*
X154235441Y-97355138D01*
X154238543Y-97321358D01*
X154264187Y-97288822D01*
X154269129Y-97285105D01*
X154279338Y-97280269D01*
X154294764Y-97276506D01*
X154317886Y-97273683D01*
X154351183Y-97271670D01*
X154397137Y-97270333D01*
X154458228Y-97269542D01*
X154536935Y-97269163D01*
X154635740Y-97269067D01*
X154655767Y-97269068D01*
G37*
X153979734Y-97291645D02*
X153985366Y-97297835D01*
X153990456Y-97306041D01*
X153994543Y-97317817D01*
X153997721Y-97335276D01*
X154000087Y-97360530D01*
X154001738Y-97395690D01*
X154002769Y-97442869D01*
X154003277Y-97504177D01*
X154003359Y-97581727D01*
X154003109Y-97677631D01*
X154002625Y-97794000D01*
X154002557Y-97808175D01*
X154001971Y-97869937D01*
X154000648Y-97913620D01*
X153998103Y-97943001D01*
X153993848Y-97961855D01*
X153987396Y-97973959D01*
X153978262Y-97983089D01*
X153944804Y-98000506D01*
X153909856Y-97997604D01*
X153878953Y-97973100D01*
X153869944Y-97959897D01*
X153862492Y-97941361D01*
X153858124Y-97915333D01*
X153856069Y-97876787D01*
X153855556Y-97820700D01*
X153855556Y-97698045D01*
X153358845Y-97698045D01*
X153358845Y-97832871D01*
X153358772Y-97868662D01*
X153358009Y-97914992D01*
X153355833Y-97945526D01*
X153351536Y-97964557D01*
X153344412Y-97976374D01*
X153333755Y-97985271D01*
X153301504Y-98000341D01*
X153266217Y-97997673D01*
X153235486Y-97973100D01*
X153230831Y-97966845D01*
X153224895Y-97956321D01*
X153220364Y-97942391D01*
X153217048Y-97922317D01*
X153214759Y-97893360D01*
X153213308Y-97852780D01*
X153212505Y-97797840D01*
X153212162Y-97725799D01*
X153212089Y-97633920D01*
X153212089Y-97324485D01*
X153239798Y-97296776D01*
X153271177Y-97274533D01*
X153304406Y-97271844D01*
X153336267Y-97291645D01*
X153344553Y-97301415D01*
X153351965Y-97317307D01*
X153356302Y-97341275D01*
X153358338Y-97378148D01*
X153358845Y-97432756D01*
X153358845Y-97551289D01*
X153855556Y-97551289D01*
X153855556Y-97435776D01*
X153855994Y-97384078D01*
X153857958Y-97349554D01*
X153862474Y-97326978D01*
X153870567Y-97311126D01*
X153883265Y-97296776D01*
X153914643Y-97274533D01*
X153947872Y-97271844D01*
X153979734Y-97291645D01*
G36*
X153979734Y-97291645D02*
G01*
X153985366Y-97297835D01*
X153990456Y-97306041D01*
X153994543Y-97317817D01*
X153997721Y-97335276D01*
X154000087Y-97360530D01*
X154001738Y-97395690D01*
X154002769Y-97442869D01*
X154003277Y-97504177D01*
X154003359Y-97581727D01*
X154003109Y-97677631D01*
X154002625Y-97794000D01*
X154002557Y-97808175D01*
X154001971Y-97869937D01*
X154000648Y-97913620D01*
X153998103Y-97943001D01*
X153993848Y-97961855D01*
X153987396Y-97973959D01*
X153978262Y-97983089D01*
X153944804Y-98000506D01*
X153909856Y-97997604D01*
X153878953Y-97973100D01*
X153869944Y-97959897D01*
X153862492Y-97941361D01*
X153858124Y-97915333D01*
X153856069Y-97876787D01*
X153855556Y-97820700D01*
X153855556Y-97698045D01*
X153358845Y-97698045D01*
X153358845Y-97832871D01*
X153358772Y-97868662D01*
X153358009Y-97914992D01*
X153355833Y-97945526D01*
X153351536Y-97964557D01*
X153344412Y-97976374D01*
X153333755Y-97985271D01*
X153301504Y-98000341D01*
X153266217Y-97997673D01*
X153235486Y-97973100D01*
X153230831Y-97966845D01*
X153224895Y-97956321D01*
X153220364Y-97942391D01*
X153217048Y-97922317D01*
X153214759Y-97893360D01*
X153213308Y-97852780D01*
X153212505Y-97797840D01*
X153212162Y-97725799D01*
X153212089Y-97633920D01*
X153212089Y-97324485D01*
X153239798Y-97296776D01*
X153271177Y-97274533D01*
X153304406Y-97271844D01*
X153336267Y-97291645D01*
X153344553Y-97301415D01*
X153351965Y-97317307D01*
X153356302Y-97341275D01*
X153358338Y-97378148D01*
X153358845Y-97432756D01*
X153358845Y-97551289D01*
X153855556Y-97551289D01*
X153855556Y-97435776D01*
X153855994Y-97384078D01*
X153857958Y-97349554D01*
X153862474Y-97326978D01*
X153870567Y-97311126D01*
X153883265Y-97296776D01*
X153914643Y-97274533D01*
X153947872Y-97271844D01*
X153979734Y-97291645D01*
G37*
X158685133Y-97880396D02*
X158683163Y-97913175D01*
X158680235Y-97936095D01*
X158676158Y-97951897D01*
X158670743Y-97963319D01*
X158663803Y-97973100D01*
X158640406Y-98002845D01*
X158474714Y-98002251D01*
X158439918Y-98001953D01*
X158341435Y-97998522D01*
X158260473Y-97990839D01*
X158193379Y-97978282D01*
X158136496Y-97960227D01*
X158086169Y-97936052D01*
X158082810Y-97934135D01*
X158024998Y-97897417D01*
X157982644Y-97860451D01*
X157949828Y-97816966D01*
X157920628Y-97760689D01*
X157916346Y-97751073D01*
X157893769Y-97687887D01*
X157888034Y-97642333D01*
X158037279Y-97642333D01*
X158042892Y-97667061D01*
X158048618Y-97682939D01*
X158081548Y-97742847D01*
X158128886Y-97788600D01*
X158192652Y-97821736D01*
X158274861Y-97843790D01*
X158277655Y-97844292D01*
X158323940Y-97850255D01*
X158380336Y-97854483D01*
X158435274Y-97856089D01*
X158529156Y-97856089D01*
X158529156Y-97415822D01*
X158441667Y-97416270D01*
X158374747Y-97418746D01*
X158282349Y-97429998D01*
X158203034Y-97449537D01*
X158141060Y-97476511D01*
X158110120Y-97497240D01*
X158082000Y-97527006D01*
X158058660Y-97569434D01*
X158051533Y-97585400D01*
X158039709Y-97617902D01*
X158037279Y-97642333D01*
X157888034Y-97642333D01*
X157886797Y-97632509D01*
X157895399Y-97577483D01*
X157919541Y-97515351D01*
X157920337Y-97513658D01*
X157960788Y-97444236D01*
X158011473Y-97387638D01*
X158074198Y-97343070D01*
X158150774Y-97309741D01*
X158243009Y-97286861D01*
X158352712Y-97273636D01*
X158481691Y-97269275D01*
X158485263Y-97269270D01*
X158545283Y-97269410D01*
X158587214Y-97270446D01*
X158615328Y-97273040D01*
X158633897Y-97277853D01*
X158647194Y-97285544D01*
X158659491Y-97296776D01*
X158687200Y-97324485D01*
X158687200Y-97633920D01*
X158687175Y-97695526D01*
X158686950Y-97774311D01*
X158686332Y-97835021D01*
X158685775Y-97856089D01*
X158685133Y-97880396D01*
G36*
X158685133Y-97880396D02*
G01*
X158683163Y-97913175D01*
X158680235Y-97936095D01*
X158676158Y-97951897D01*
X158670743Y-97963319D01*
X158663803Y-97973100D01*
X158640406Y-98002845D01*
X158474714Y-98002251D01*
X158439918Y-98001953D01*
X158341435Y-97998522D01*
X158260473Y-97990839D01*
X158193379Y-97978282D01*
X158136496Y-97960227D01*
X158086169Y-97936052D01*
X158082810Y-97934135D01*
X158024998Y-97897417D01*
X157982644Y-97860451D01*
X157949828Y-97816966D01*
X157920628Y-97760689D01*
X157916346Y-97751073D01*
X157893769Y-97687887D01*
X157888034Y-97642333D01*
X158037279Y-97642333D01*
X158042892Y-97667061D01*
X158048618Y-97682939D01*
X158081548Y-97742847D01*
X158128886Y-97788600D01*
X158192652Y-97821736D01*
X158274861Y-97843790D01*
X158277655Y-97844292D01*
X158323940Y-97850255D01*
X158380336Y-97854483D01*
X158435274Y-97856089D01*
X158529156Y-97856089D01*
X158529156Y-97415822D01*
X158441667Y-97416270D01*
X158374747Y-97418746D01*
X158282349Y-97429998D01*
X158203034Y-97449537D01*
X158141060Y-97476511D01*
X158110120Y-97497240D01*
X158082000Y-97527006D01*
X158058660Y-97569434D01*
X158051533Y-97585400D01*
X158039709Y-97617902D01*
X158037279Y-97642333D01*
X157888034Y-97642333D01*
X157886797Y-97632509D01*
X157895399Y-97577483D01*
X157919541Y-97515351D01*
X157920337Y-97513658D01*
X157960788Y-97444236D01*
X158011473Y-97387638D01*
X158074198Y-97343070D01*
X158150774Y-97309741D01*
X158243009Y-97286861D01*
X158352712Y-97273636D01*
X158481691Y-97269275D01*
X158485263Y-97269270D01*
X158545283Y-97269410D01*
X158587214Y-97270446D01*
X158615328Y-97273040D01*
X158633897Y-97277853D01*
X158647194Y-97285544D01*
X158659491Y-97296776D01*
X158687200Y-97324485D01*
X158687200Y-97633920D01*
X158687175Y-97695526D01*
X158686950Y-97774311D01*
X158686332Y-97835021D01*
X158685775Y-97856089D01*
X158685133Y-97880396D01*
G37*
X165776817Y-97454427D02*
X165776870Y-97535041D01*
X165776622Y-97635956D01*
X165776583Y-97711617D01*
X165776328Y-97789526D01*
X165775684Y-97849536D01*
X165774480Y-97894264D01*
X165772543Y-97926326D01*
X165769703Y-97948340D01*
X165765788Y-97962924D01*
X165760626Y-97972694D01*
X165754045Y-97980267D01*
X165747077Y-97986501D01*
X165734079Y-97993801D01*
X165714931Y-97998554D01*
X165685528Y-98001292D01*
X165641762Y-98002545D01*
X165579528Y-98002845D01*
X165530582Y-98002469D01*
X165423722Y-97998041D01*
X165334494Y-97987953D01*
X165259696Y-97971365D01*
X165196125Y-97947435D01*
X165140579Y-97915321D01*
X165089854Y-97874182D01*
X165083866Y-97868330D01*
X165046999Y-97819821D01*
X165015899Y-97759013D01*
X164994417Y-97694769D01*
X164989136Y-97656026D01*
X165136353Y-97656026D01*
X165154635Y-97706961D01*
X165184305Y-97752878D01*
X165231002Y-97795287D01*
X165292392Y-97825090D01*
X165371538Y-97844226D01*
X165373028Y-97844464D01*
X165421999Y-97850256D01*
X165480693Y-97854396D01*
X165536734Y-97856004D01*
X165629867Y-97856089D01*
X165629867Y-97415822D01*
X165553667Y-97415808D01*
X165550639Y-97415817D01*
X165499519Y-97417782D01*
X165439416Y-97422507D01*
X165382708Y-97429035D01*
X165332750Y-97438331D01*
X165257998Y-97464600D01*
X165200489Y-97503899D01*
X165158988Y-97556933D01*
X165137771Y-97608200D01*
X165136353Y-97656026D01*
X164989136Y-97656026D01*
X164986400Y-97635956D01*
X164987679Y-97614739D01*
X164999991Y-97557323D01*
X165022520Y-97497413D01*
X165051750Y-97443363D01*
X165084167Y-97403532D01*
X165103708Y-97386510D01*
X165158420Y-97347322D01*
X165218723Y-97317193D01*
X165287919Y-97295232D01*
X165369311Y-97280550D01*
X165466200Y-97272259D01*
X165581889Y-97269467D01*
X165621371Y-97269066D01*
X165667082Y-97268653D01*
X165702883Y-97270457D01*
X165729974Y-97276739D01*
X165749556Y-97289759D01*
X165762830Y-97311778D01*
X165770998Y-97345055D01*
X165775260Y-97391851D01*
X165775857Y-97415822D01*
X165776817Y-97454427D01*
G36*
X165776817Y-97454427D02*
G01*
X165776870Y-97535041D01*
X165776622Y-97635956D01*
X165776583Y-97711617D01*
X165776328Y-97789526D01*
X165775684Y-97849536D01*
X165774480Y-97894264D01*
X165772543Y-97926326D01*
X165769703Y-97948340D01*
X165765788Y-97962924D01*
X165760626Y-97972694D01*
X165754045Y-97980267D01*
X165747077Y-97986501D01*
X165734079Y-97993801D01*
X165714931Y-97998554D01*
X165685528Y-98001292D01*
X165641762Y-98002545D01*
X165579528Y-98002845D01*
X165530582Y-98002469D01*
X165423722Y-97998041D01*
X165334494Y-97987953D01*
X165259696Y-97971365D01*
X165196125Y-97947435D01*
X165140579Y-97915321D01*
X165089854Y-97874182D01*
X165083866Y-97868330D01*
X165046999Y-97819821D01*
X165015899Y-97759013D01*
X164994417Y-97694769D01*
X164989136Y-97656026D01*
X165136353Y-97656026D01*
X165154635Y-97706961D01*
X165184305Y-97752878D01*
X165231002Y-97795287D01*
X165292392Y-97825090D01*
X165371538Y-97844226D01*
X165373028Y-97844464D01*
X165421999Y-97850256D01*
X165480693Y-97854396D01*
X165536734Y-97856004D01*
X165629867Y-97856089D01*
X165629867Y-97415822D01*
X165553667Y-97415808D01*
X165550639Y-97415817D01*
X165499519Y-97417782D01*
X165439416Y-97422507D01*
X165382708Y-97429035D01*
X165332750Y-97438331D01*
X165257998Y-97464600D01*
X165200489Y-97503899D01*
X165158988Y-97556933D01*
X165137771Y-97608200D01*
X165136353Y-97656026D01*
X164989136Y-97656026D01*
X164986400Y-97635956D01*
X164987679Y-97614739D01*
X164999991Y-97557323D01*
X165022520Y-97497413D01*
X165051750Y-97443363D01*
X165084167Y-97403532D01*
X165103708Y-97386510D01*
X165158420Y-97347322D01*
X165218723Y-97317193D01*
X165287919Y-97295232D01*
X165369311Y-97280550D01*
X165466200Y-97272259D01*
X165581889Y-97269467D01*
X165621371Y-97269066D01*
X165667082Y-97268653D01*
X165702883Y-97270457D01*
X165729974Y-97276739D01*
X165749556Y-97289759D01*
X165762830Y-97311778D01*
X165770998Y-97345055D01*
X165775260Y-97391851D01*
X165775857Y-97415822D01*
X165776817Y-97454427D01*
G37*
X160831893Y-97267892D02*
X160843301Y-97274029D01*
X160853850Y-97284691D01*
X160865136Y-97298811D01*
X160869589Y-97304772D01*
X160875588Y-97315268D01*
X160880167Y-97329093D01*
X160883519Y-97348998D01*
X160885833Y-97377732D01*
X160887301Y-97418045D01*
X160888113Y-97472687D01*
X160888460Y-97544407D01*
X160888534Y-97635956D01*
X160888511Y-97694486D01*
X160888292Y-97773573D01*
X160887683Y-97834516D01*
X160886492Y-97880062D01*
X160884529Y-97912963D01*
X160881603Y-97935968D01*
X160877523Y-97951826D01*
X160872097Y-97963286D01*
X160865136Y-97973100D01*
X160834708Y-97997493D01*
X160799765Y-98000372D01*
X160762784Y-97981282D01*
X160758600Y-97977807D01*
X160750424Y-97969279D01*
X160744364Y-97957728D01*
X160739981Y-97939896D01*
X160736839Y-97912524D01*
X160734502Y-97872354D01*
X160732531Y-97816128D01*
X160730489Y-97740589D01*
X160724845Y-97521458D01*
X160459556Y-97762099D01*
X160385722Y-97828875D01*
X160320542Y-97886991D01*
X160268348Y-97931949D01*
X160227273Y-97964871D01*
X160195455Y-97986879D01*
X160171026Y-97999094D01*
X160152124Y-98002639D01*
X160136883Y-97998636D01*
X160123439Y-97988207D01*
X160109927Y-97972474D01*
X160103682Y-97963991D01*
X160098050Y-97953413D01*
X160093839Y-97939255D01*
X160090887Y-97918803D01*
X160089032Y-97889342D01*
X160088113Y-97848161D01*
X160087968Y-97792544D01*
X160088435Y-97719779D01*
X160089352Y-97627151D01*
X160092667Y-97312199D01*
X160119318Y-97290633D01*
X160145383Y-97274441D01*
X160178241Y-97271670D01*
X160212772Y-97290623D01*
X160217084Y-97294208D01*
X160225216Y-97302737D01*
X160231245Y-97314329D01*
X160235606Y-97332235D01*
X160238734Y-97359706D01*
X160241063Y-97399994D01*
X160243029Y-97456351D01*
X160245067Y-97532029D01*
X160250711Y-97751878D01*
X160431334Y-97588084D01*
X160518072Y-97509451D01*
X160593843Y-97441058D01*
X160655980Y-97385708D01*
X160706078Y-97342338D01*
X160745735Y-97309881D01*
X160776548Y-97287273D01*
X160800114Y-97273448D01*
X160818030Y-97267343D01*
X160831893Y-97267892D01*
G36*
X160831893Y-97267892D02*
G01*
X160843301Y-97274029D01*
X160853850Y-97284691D01*
X160865136Y-97298811D01*
X160869589Y-97304772D01*
X160875588Y-97315268D01*
X160880167Y-97329093D01*
X160883519Y-97348998D01*
X160885833Y-97377732D01*
X160887301Y-97418045D01*
X160888113Y-97472687D01*
X160888460Y-97544407D01*
X160888534Y-97635956D01*
X160888511Y-97694486D01*
X160888292Y-97773573D01*
X160887683Y-97834516D01*
X160886492Y-97880062D01*
X160884529Y-97912963D01*
X160881603Y-97935968D01*
X160877523Y-97951826D01*
X160872097Y-97963286D01*
X160865136Y-97973100D01*
X160834708Y-97997493D01*
X160799765Y-98000372D01*
X160762784Y-97981282D01*
X160758600Y-97977807D01*
X160750424Y-97969279D01*
X160744364Y-97957728D01*
X160739981Y-97939896D01*
X160736839Y-97912524D01*
X160734502Y-97872354D01*
X160732531Y-97816128D01*
X160730489Y-97740589D01*
X160724845Y-97521458D01*
X160459556Y-97762099D01*
X160385722Y-97828875D01*
X160320542Y-97886991D01*
X160268348Y-97931949D01*
X160227273Y-97964871D01*
X160195455Y-97986879D01*
X160171026Y-97999094D01*
X160152124Y-98002639D01*
X160136883Y-97998636D01*
X160123439Y-97988207D01*
X160109927Y-97972474D01*
X160103682Y-97963991D01*
X160098050Y-97953413D01*
X160093839Y-97939255D01*
X160090887Y-97918803D01*
X160089032Y-97889342D01*
X160088113Y-97848161D01*
X160087968Y-97792544D01*
X160088435Y-97719779D01*
X160089352Y-97627151D01*
X160092667Y-97312199D01*
X160119318Y-97290633D01*
X160145383Y-97274441D01*
X160178241Y-97271670D01*
X160212772Y-97290623D01*
X160217084Y-97294208D01*
X160225216Y-97302737D01*
X160231245Y-97314329D01*
X160235606Y-97332235D01*
X160238734Y-97359706D01*
X160241063Y-97399994D01*
X160243029Y-97456351D01*
X160245067Y-97532029D01*
X160250711Y-97751878D01*
X160431334Y-97588084D01*
X160518072Y-97509451D01*
X160593843Y-97441058D01*
X160655980Y-97385708D01*
X160706078Y-97342338D01*
X160745735Y-97309881D01*
X160776548Y-97287273D01*
X160800114Y-97273448D01*
X160818030Y-97267343D01*
X160831893Y-97267892D01*
G37*
X161629150Y-97274179D02*
X161735157Y-97290494D01*
X161828969Y-97318545D01*
X161907765Y-97357452D01*
X161968719Y-97406334D01*
X161994789Y-97439195D01*
X162024297Y-97488394D01*
X162049568Y-97542252D01*
X162067218Y-97593419D01*
X162073858Y-97634544D01*
X162072298Y-97654259D01*
X162059357Y-97705592D01*
X162036194Y-97762118D01*
X162006302Y-97816035D01*
X161973173Y-97859539D01*
X161962977Y-97869887D01*
X161895892Y-97921662D01*
X161815766Y-97961554D01*
X161729556Y-97985956D01*
X161674592Y-97994068D01*
X161581139Y-98000673D01*
X161491358Y-97998586D01*
X161408869Y-97988340D01*
X161337286Y-97970470D01*
X161280228Y-97945508D01*
X161241311Y-97913988D01*
X161239936Y-97912012D01*
X161232848Y-97886786D01*
X161228609Y-97839535D01*
X161227200Y-97770071D01*
X161228060Y-97707838D01*
X161232780Y-97660456D01*
X161244470Y-97628353D01*
X161266239Y-97608800D01*
X161301198Y-97599070D01*
X161352456Y-97596433D01*
X161423123Y-97598161D01*
X161471743Y-97601173D01*
X161521939Y-97609366D01*
X161554433Y-97623419D01*
X161571892Y-97644654D01*
X161576983Y-97674394D01*
X161576877Y-97678936D01*
X161568175Y-97713730D01*
X161544165Y-97737147D01*
X161502900Y-97750347D01*
X161442431Y-97754489D01*
X161373956Y-97754489D01*
X161373956Y-97792841D01*
X161374006Y-97801976D01*
X161376227Y-97819227D01*
X161385494Y-97829521D01*
X161406875Y-97836459D01*
X161445436Y-97843641D01*
X161450910Y-97844575D01*
X161547860Y-97854478D01*
X161637852Y-97851559D01*
X161718760Y-97836829D01*
X161788459Y-97811299D01*
X161844824Y-97775978D01*
X161885729Y-97731879D01*
X161909051Y-97680012D01*
X161912663Y-97621388D01*
X161907145Y-97592494D01*
X161880461Y-97536604D01*
X161834273Y-97490945D01*
X161769291Y-97456108D01*
X161686229Y-97432690D01*
X161661555Y-97428241D01*
X161572226Y-97417742D01*
X161492419Y-97418971D01*
X161414326Y-97431906D01*
X161379183Y-97438696D01*
X161333745Y-97439713D01*
X161302430Y-97427182D01*
X161282277Y-97400395D01*
X161275893Y-97372148D01*
X161285379Y-97340924D01*
X161294708Y-97327499D01*
X161328943Y-97303967D01*
X161381565Y-97286095D01*
X161450081Y-97274599D01*
X161532000Y-97270192D01*
X161629150Y-97274179D01*
G36*
X161629150Y-97274179D02*
G01*
X161735157Y-97290494D01*
X161828969Y-97318545D01*
X161907765Y-97357452D01*
X161968719Y-97406334D01*
X161994789Y-97439195D01*
X162024297Y-97488394D01*
X162049568Y-97542252D01*
X162067218Y-97593419D01*
X162073858Y-97634544D01*
X162072298Y-97654259D01*
X162059357Y-97705592D01*
X162036194Y-97762118D01*
X162006302Y-97816035D01*
X161973173Y-97859539D01*
X161962977Y-97869887D01*
X161895892Y-97921662D01*
X161815766Y-97961554D01*
X161729556Y-97985956D01*
X161674592Y-97994068D01*
X161581139Y-98000673D01*
X161491358Y-97998586D01*
X161408869Y-97988340D01*
X161337286Y-97970470D01*
X161280228Y-97945508D01*
X161241311Y-97913988D01*
X161239936Y-97912012D01*
X161232848Y-97886786D01*
X161228609Y-97839535D01*
X161227200Y-97770071D01*
X161228060Y-97707838D01*
X161232780Y-97660456D01*
X161244470Y-97628353D01*
X161266239Y-97608800D01*
X161301198Y-97599070D01*
X161352456Y-97596433D01*
X161423123Y-97598161D01*
X161471743Y-97601173D01*
X161521939Y-97609366D01*
X161554433Y-97623419D01*
X161571892Y-97644654D01*
X161576983Y-97674394D01*
X161576877Y-97678936D01*
X161568175Y-97713730D01*
X161544165Y-97737147D01*
X161502900Y-97750347D01*
X161442431Y-97754489D01*
X161373956Y-97754489D01*
X161373956Y-97792841D01*
X161374006Y-97801976D01*
X161376227Y-97819227D01*
X161385494Y-97829521D01*
X161406875Y-97836459D01*
X161445436Y-97843641D01*
X161450910Y-97844575D01*
X161547860Y-97854478D01*
X161637852Y-97851559D01*
X161718760Y-97836829D01*
X161788459Y-97811299D01*
X161844824Y-97775978D01*
X161885729Y-97731879D01*
X161909051Y-97680012D01*
X161912663Y-97621388D01*
X161907145Y-97592494D01*
X161880461Y-97536604D01*
X161834273Y-97490945D01*
X161769291Y-97456108D01*
X161686229Y-97432690D01*
X161661555Y-97428241D01*
X161572226Y-97417742D01*
X161492419Y-97418971D01*
X161414326Y-97431906D01*
X161379183Y-97438696D01*
X161333745Y-97439713D01*
X161302430Y-97427182D01*
X161282277Y-97400395D01*
X161275893Y-97372148D01*
X161285379Y-97340924D01*
X161294708Y-97327499D01*
X161328943Y-97303967D01*
X161381565Y-97286095D01*
X161450081Y-97274599D01*
X161532000Y-97270192D01*
X161629150Y-97274179D01*
G37*
X159679803Y-97298811D02*
X159684752Y-97305495D01*
X159690596Y-97316066D01*
X159695057Y-97330153D01*
X159698321Y-97350478D01*
X159700574Y-97379765D01*
X159702002Y-97420737D01*
X159702792Y-97476117D01*
X159703129Y-97548628D01*
X159703200Y-97640994D01*
X159703171Y-97706911D01*
X159702939Y-97785228D01*
X159702319Y-97845496D01*
X159701126Y-97890393D01*
X159699179Y-97922602D01*
X159696294Y-97944800D01*
X159692288Y-97959669D01*
X159686979Y-97969889D01*
X159680183Y-97978138D01*
X159675668Y-97982795D01*
X159667438Y-97989282D01*
X159656078Y-97994194D01*
X159638810Y-97997749D01*
X159612855Y-98000167D01*
X159575436Y-98001667D01*
X159523773Y-98002467D01*
X159455089Y-98002787D01*
X159366606Y-98002845D01*
X159346931Y-98002838D01*
X159259906Y-98002572D01*
X159192254Y-98001806D01*
X159141299Y-98000392D01*
X159104367Y-97998180D01*
X159078783Y-97995022D01*
X159061871Y-97990769D01*
X159050957Y-97985271D01*
X159040464Y-97975285D01*
X159027203Y-97944168D01*
X159028386Y-97908280D01*
X159044550Y-97876733D01*
X159046739Y-97874457D01*
X159055427Y-97868189D01*
X159068769Y-97863523D01*
X159089752Y-97860227D01*
X159121363Y-97858068D01*
X159166590Y-97856814D01*
X159228420Y-97856231D01*
X159309839Y-97856089D01*
X159556445Y-97856089D01*
X159556445Y-97698045D01*
X159394006Y-97698045D01*
X159358338Y-97697964D01*
X159302568Y-97697167D01*
X159263430Y-97695162D01*
X159236976Y-97691521D01*
X159219259Y-97685812D01*
X159206329Y-97677607D01*
X159202686Y-97674423D01*
X159184278Y-97643448D01*
X159183644Y-97607112D01*
X159201183Y-97573493D01*
X159201245Y-97573424D01*
X159210916Y-97564798D01*
X159224209Y-97558742D01*
X159244917Y-97554811D01*
X159276828Y-97552556D01*
X159323734Y-97551531D01*
X159389424Y-97551289D01*
X159557571Y-97551289D01*
X159554186Y-97486378D01*
X159550800Y-97421467D01*
X159308723Y-97418414D01*
X159283707Y-97418086D01*
X159202087Y-97416606D01*
X159139768Y-97414222D01*
X159094154Y-97410227D01*
X159062652Y-97403913D01*
X159042667Y-97394574D01*
X159031604Y-97381503D01*
X159026869Y-97363992D01*
X159025867Y-97341335D01*
X159025873Y-97338970D01*
X159027027Y-97318939D01*
X159031824Y-97303146D01*
X159042632Y-97291090D01*
X159061817Y-97282267D01*
X159091745Y-97276175D01*
X159134783Y-97272311D01*
X159193299Y-97270174D01*
X159269657Y-97269260D01*
X159366226Y-97269067D01*
X159656406Y-97269067D01*
X159679803Y-97298811D01*
G36*
X159679803Y-97298811D02*
G01*
X159684752Y-97305495D01*
X159690596Y-97316066D01*
X159695057Y-97330153D01*
X159698321Y-97350478D01*
X159700574Y-97379765D01*
X159702002Y-97420737D01*
X159702792Y-97476117D01*
X159703129Y-97548628D01*
X159703200Y-97640994D01*
X159703171Y-97706911D01*
X159702939Y-97785228D01*
X159702319Y-97845496D01*
X159701126Y-97890393D01*
X159699179Y-97922602D01*
X159696294Y-97944800D01*
X159692288Y-97959669D01*
X159686979Y-97969889D01*
X159680183Y-97978138D01*
X159675668Y-97982795D01*
X159667438Y-97989282D01*
X159656078Y-97994194D01*
X159638810Y-97997749D01*
X159612855Y-98000167D01*
X159575436Y-98001667D01*
X159523773Y-98002467D01*
X159455089Y-98002787D01*
X159366606Y-98002845D01*
X159346931Y-98002838D01*
X159259906Y-98002572D01*
X159192254Y-98001806D01*
X159141299Y-98000392D01*
X159104367Y-97998180D01*
X159078783Y-97995022D01*
X159061871Y-97990769D01*
X159050957Y-97985271D01*
X159040464Y-97975285D01*
X159027203Y-97944168D01*
X159028386Y-97908280D01*
X159044550Y-97876733D01*
X159046739Y-97874457D01*
X159055427Y-97868189D01*
X159068769Y-97863523D01*
X159089752Y-97860227D01*
X159121363Y-97858068D01*
X159166590Y-97856814D01*
X159228420Y-97856231D01*
X159309839Y-97856089D01*
X159556445Y-97856089D01*
X159556445Y-97698045D01*
X159394006Y-97698045D01*
X159358338Y-97697964D01*
X159302568Y-97697167D01*
X159263430Y-97695162D01*
X159236976Y-97691521D01*
X159219259Y-97685812D01*
X159206329Y-97677607D01*
X159202686Y-97674423D01*
X159184278Y-97643448D01*
X159183644Y-97607112D01*
X159201183Y-97573493D01*
X159201245Y-97573424D01*
X159210916Y-97564798D01*
X159224209Y-97558742D01*
X159244917Y-97554811D01*
X159276828Y-97552556D01*
X159323734Y-97551531D01*
X159389424Y-97551289D01*
X159557571Y-97551289D01*
X159554186Y-97486378D01*
X159550800Y-97421467D01*
X159308723Y-97418414D01*
X159283707Y-97418086D01*
X159202087Y-97416606D01*
X159139768Y-97414222D01*
X159094154Y-97410227D01*
X159062652Y-97403913D01*
X159042667Y-97394574D01*
X159031604Y-97381503D01*
X159026869Y-97363992D01*
X159025867Y-97341335D01*
X159025873Y-97338970D01*
X159027027Y-97318939D01*
X159031824Y-97303146D01*
X159042632Y-97291090D01*
X159061817Y-97282267D01*
X159091745Y-97276175D01*
X159134783Y-97272311D01*
X159193299Y-97270174D01*
X159269657Y-97269260D01*
X159366226Y-97269067D01*
X159656406Y-97269067D01*
X159679803Y-97298811D01*
G37*
X164356734Y-97269083D02*
X164433831Y-97269275D01*
X164492777Y-97269860D01*
X164536364Y-97271051D01*
X164567383Y-97273064D01*
X164588625Y-97276112D01*
X164602882Y-97280409D01*
X164612945Y-97286172D01*
X164621606Y-97293612D01*
X164623391Y-97295293D01*
X164630635Y-97302832D01*
X164636277Y-97311850D01*
X164640517Y-97324984D01*
X164643556Y-97344872D01*
X164645594Y-97374151D01*
X164646830Y-97415458D01*
X164647465Y-97471431D01*
X164647700Y-97544707D01*
X164647734Y-97637923D01*
X164647697Y-97710713D01*
X164647448Y-97788889D01*
X164646812Y-97849103D01*
X164645615Y-97893982D01*
X164643684Y-97926152D01*
X164640846Y-97948239D01*
X164636927Y-97962870D01*
X164631755Y-97972670D01*
X164625156Y-97980267D01*
X164621822Y-97983444D01*
X164613300Y-97989554D01*
X164601298Y-97994229D01*
X164583087Y-97997659D01*
X164555940Y-98000036D01*
X164517129Y-98001552D01*
X164463924Y-98002398D01*
X164393598Y-98002765D01*
X164303422Y-98002845D01*
X164261314Y-98002833D01*
X164180167Y-98002651D01*
X164117675Y-98002098D01*
X164071109Y-98000982D01*
X164037741Y-97999113D01*
X164014844Y-97996298D01*
X163999688Y-97992346D01*
X163989546Y-97987066D01*
X163981689Y-97980267D01*
X163966963Y-97958667D01*
X163959111Y-97929467D01*
X163964610Y-97905560D01*
X163981689Y-97878667D01*
X163986668Y-97874059D01*
X163996443Y-97867772D01*
X164010559Y-97863146D01*
X164032054Y-97859930D01*
X164063968Y-97857870D01*
X164109342Y-97856712D01*
X164171213Y-97856202D01*
X164252622Y-97856089D01*
X164500978Y-97856089D01*
X164500978Y-97698045D01*
X164339801Y-97698045D01*
X164303983Y-97697899D01*
X164238359Y-97696176D01*
X164191118Y-97691741D01*
X164159383Y-97683637D01*
X164140277Y-97670906D01*
X164130923Y-97652592D01*
X164128445Y-97627738D01*
X164129242Y-97607482D01*
X164134494Y-97585656D01*
X164147288Y-97570304D01*
X164170628Y-97560309D01*
X164207517Y-97554553D01*
X164260959Y-97551919D01*
X164333958Y-97551289D01*
X164502105Y-97551289D01*
X164498719Y-97486378D01*
X164495334Y-97421467D01*
X164247617Y-97418418D01*
X164185026Y-97417539D01*
X164116565Y-97416095D01*
X164065661Y-97414164D01*
X164029408Y-97411514D01*
X164004901Y-97407910D01*
X163989235Y-97403121D01*
X163979506Y-97396913D01*
X163973491Y-97390510D01*
X163960482Y-97358828D01*
X163964043Y-97323142D01*
X163983818Y-97292084D01*
X163987069Y-97289161D01*
X163996049Y-97282810D01*
X164008153Y-97277957D01*
X164026159Y-97274403D01*
X164052847Y-97271946D01*
X164090997Y-97270385D01*
X164143386Y-97269518D01*
X164212794Y-97269146D01*
X164302001Y-97269067D01*
X164356734Y-97269083D01*
G36*
X164356734Y-97269083D02*
G01*
X164433831Y-97269275D01*
X164492777Y-97269860D01*
X164536364Y-97271051D01*
X164567383Y-97273064D01*
X164588625Y-97276112D01*
X164602882Y-97280409D01*
X164612945Y-97286172D01*
X164621606Y-97293612D01*
X164623391Y-97295293D01*
X164630635Y-97302832D01*
X164636277Y-97311850D01*
X164640517Y-97324984D01*
X164643556Y-97344872D01*
X164645594Y-97374151D01*
X164646830Y-97415458D01*
X164647465Y-97471431D01*
X164647700Y-97544707D01*
X164647734Y-97637923D01*
X164647697Y-97710713D01*
X164647448Y-97788889D01*
X164646812Y-97849103D01*
X164645615Y-97893982D01*
X164643684Y-97926152D01*
X164640846Y-97948239D01*
X164636927Y-97962870D01*
X164631755Y-97972670D01*
X164625156Y-97980267D01*
X164621822Y-97983444D01*
X164613300Y-97989554D01*
X164601298Y-97994229D01*
X164583087Y-97997659D01*
X164555940Y-98000036D01*
X164517129Y-98001552D01*
X164463924Y-98002398D01*
X164393598Y-98002765D01*
X164303422Y-98002845D01*
X164261314Y-98002833D01*
X164180167Y-98002651D01*
X164117675Y-98002098D01*
X164071109Y-98000982D01*
X164037741Y-97999113D01*
X164014844Y-97996298D01*
X163999688Y-97992346D01*
X163989546Y-97987066D01*
X163981689Y-97980267D01*
X163966963Y-97958667D01*
X163959111Y-97929467D01*
X163964610Y-97905560D01*
X163981689Y-97878667D01*
X163986668Y-97874059D01*
X163996443Y-97867772D01*
X164010559Y-97863146D01*
X164032054Y-97859930D01*
X164063968Y-97857870D01*
X164109342Y-97856712D01*
X164171213Y-97856202D01*
X164252622Y-97856089D01*
X164500978Y-97856089D01*
X164500978Y-97698045D01*
X164339801Y-97698045D01*
X164303983Y-97697899D01*
X164238359Y-97696176D01*
X164191118Y-97691741D01*
X164159383Y-97683637D01*
X164140277Y-97670906D01*
X164130923Y-97652592D01*
X164128445Y-97627738D01*
X164129242Y-97607482D01*
X164134494Y-97585656D01*
X164147288Y-97570304D01*
X164170628Y-97560309D01*
X164207517Y-97554553D01*
X164260959Y-97551919D01*
X164333958Y-97551289D01*
X164502105Y-97551289D01*
X164498719Y-97486378D01*
X164495334Y-97421467D01*
X164247617Y-97418418D01*
X164185026Y-97417539D01*
X164116565Y-97416095D01*
X164065661Y-97414164D01*
X164029408Y-97411514D01*
X164004901Y-97407910D01*
X163989235Y-97403121D01*
X163979506Y-97396913D01*
X163973491Y-97390510D01*
X163960482Y-97358828D01*
X163964043Y-97323142D01*
X163983818Y-97292084D01*
X163987069Y-97289161D01*
X163996049Y-97282810D01*
X164008153Y-97277957D01*
X164026159Y-97274403D01*
X164052847Y-97271946D01*
X164090997Y-97270385D01*
X164143386Y-97269518D01*
X164212794Y-97269146D01*
X164302001Y-97269067D01*
X164356734Y-97269083D01*
G37*
X155789702Y-97278478D02*
X155807663Y-97296989D01*
X155828263Y-97328071D01*
X155853095Y-97373756D01*
X155883750Y-97436078D01*
X155921820Y-97517071D01*
X155936454Y-97548454D01*
X155966203Y-97611638D01*
X155992297Y-97666244D01*
X156013292Y-97709290D01*
X156027739Y-97737793D01*
X156034191Y-97748770D01*
X156035550Y-97748189D01*
X156045542Y-97734242D01*
X156062833Y-97704704D01*
X156085430Y-97663087D01*
X156111338Y-97612903D01*
X156127311Y-97581414D01*
X156156261Y-97526061D01*
X156178749Y-97487044D01*
X156196965Y-97461566D01*
X156213096Y-97446831D01*
X156229330Y-97440042D01*
X156247857Y-97438400D01*
X156258360Y-97438875D01*
X156274476Y-97443082D01*
X156289790Y-97453946D01*
X156306388Y-97474219D01*
X156326357Y-97506654D01*
X156351783Y-97554004D01*
X156384752Y-97619022D01*
X156394485Y-97638277D01*
X156418943Y-97684946D01*
X156439178Y-97721109D01*
X156453311Y-97743497D01*
X156459460Y-97748845D01*
X156460827Y-97745573D01*
X156470202Y-97724664D01*
X156487062Y-97687725D01*
X156509979Y-97637874D01*
X156537520Y-97578226D01*
X156568255Y-97511898D01*
X156594970Y-97454677D01*
X156624593Y-97392688D01*
X156647664Y-97346949D01*
X156665643Y-97314908D01*
X156679990Y-97294014D01*
X156692166Y-97281718D01*
X156703632Y-97275466D01*
X156713042Y-97272574D01*
X156738147Y-97272425D01*
X156765290Y-97287768D01*
X156766590Y-97288753D01*
X156788674Y-97311388D01*
X156799723Y-97333613D01*
X156799769Y-97334253D01*
X156795228Y-97351915D01*
X156782364Y-97386481D01*
X156762605Y-97434826D01*
X156737381Y-97493825D01*
X156708119Y-97560355D01*
X156676250Y-97631291D01*
X156643201Y-97703507D01*
X156610401Y-97773880D01*
X156579280Y-97839285D01*
X156551265Y-97896597D01*
X156527786Y-97942692D01*
X156510272Y-97974446D01*
X156500151Y-97988733D01*
X156465743Y-98002102D01*
X156424046Y-97995741D01*
X156418681Y-97991044D01*
X156402852Y-97968893D01*
X156380650Y-97932132D01*
X156354233Y-97884415D01*
X156325760Y-97829393D01*
X156245986Y-97670150D01*
X156172799Y-97816742D01*
X156163103Y-97836032D01*
X156136125Y-97888380D01*
X156112096Y-97933170D01*
X156093332Y-97966154D01*
X156082146Y-97983089D01*
X156081000Y-97984332D01*
X156052879Y-97999619D01*
X156017817Y-98001302D01*
X155986776Y-97988733D01*
X155984350Y-97985884D01*
X155972090Y-97965259D01*
X155952352Y-97927708D01*
X155926448Y-97875880D01*
X155895685Y-97812423D01*
X155861375Y-97739985D01*
X155824825Y-97661216D01*
X155804585Y-97617093D01*
X155767812Y-97536365D01*
X155739355Y-97472687D01*
X155718331Y-97423752D01*
X155703854Y-97387257D01*
X155695039Y-97360895D01*
X155691004Y-97342361D01*
X155690862Y-97329352D01*
X155693730Y-97319561D01*
X155708387Y-97298678D01*
X155734990Y-97278377D01*
X155735745Y-97278035D01*
X155755335Y-97271034D01*
X155772790Y-97270504D01*
X155789702Y-97278478D01*
G36*
X155789702Y-97278478D02*
G01*
X155807663Y-97296989D01*
X155828263Y-97328071D01*
X155853095Y-97373756D01*
X155883750Y-97436078D01*
X155921820Y-97517071D01*
X155936454Y-97548454D01*
X155966203Y-97611638D01*
X155992297Y-97666244D01*
X156013292Y-97709290D01*
X156027739Y-97737793D01*
X156034191Y-97748770D01*
X156035550Y-97748189D01*
X156045542Y-97734242D01*
X156062833Y-97704704D01*
X156085430Y-97663087D01*
X156111338Y-97612903D01*
X156127311Y-97581414D01*
X156156261Y-97526061D01*
X156178749Y-97487044D01*
X156196965Y-97461566D01*
X156213096Y-97446831D01*
X156229330Y-97440042D01*
X156247857Y-97438400D01*
X156258360Y-97438875D01*
X156274476Y-97443082D01*
X156289790Y-97453946D01*
X156306388Y-97474219D01*
X156326357Y-97506654D01*
X156351783Y-97554004D01*
X156384752Y-97619022D01*
X156394485Y-97638277D01*
X156418943Y-97684946D01*
X156439178Y-97721109D01*
X156453311Y-97743497D01*
X156459460Y-97748845D01*
X156460827Y-97745573D01*
X156470202Y-97724664D01*
X156487062Y-97687725D01*
X156509979Y-97637874D01*
X156537520Y-97578226D01*
X156568255Y-97511898D01*
X156594970Y-97454677D01*
X156624593Y-97392688D01*
X156647664Y-97346949D01*
X156665643Y-97314908D01*
X156679990Y-97294014D01*
X156692166Y-97281718D01*
X156703632Y-97275466D01*
X156713042Y-97272574D01*
X156738147Y-97272425D01*
X156765290Y-97287768D01*
X156766590Y-97288753D01*
X156788674Y-97311388D01*
X156799723Y-97333613D01*
X156799769Y-97334253D01*
X156795228Y-97351915D01*
X156782364Y-97386481D01*
X156762605Y-97434826D01*
X156737381Y-97493825D01*
X156708119Y-97560355D01*
X156676250Y-97631291D01*
X156643201Y-97703507D01*
X156610401Y-97773880D01*
X156579280Y-97839285D01*
X156551265Y-97896597D01*
X156527786Y-97942692D01*
X156510272Y-97974446D01*
X156500151Y-97988733D01*
X156465743Y-98002102D01*
X156424046Y-97995741D01*
X156418681Y-97991044D01*
X156402852Y-97968893D01*
X156380650Y-97932132D01*
X156354233Y-97884415D01*
X156325760Y-97829393D01*
X156245986Y-97670150D01*
X156172799Y-97816742D01*
X156163103Y-97836032D01*
X156136125Y-97888380D01*
X156112096Y-97933170D01*
X156093332Y-97966154D01*
X156082146Y-97983089D01*
X156081000Y-97984332D01*
X156052879Y-97999619D01*
X156017817Y-98001302D01*
X155986776Y-97988733D01*
X155984350Y-97985884D01*
X155972090Y-97965259D01*
X155952352Y-97927708D01*
X155926448Y-97875880D01*
X155895685Y-97812423D01*
X155861375Y-97739985D01*
X155824825Y-97661216D01*
X155804585Y-97617093D01*
X155767812Y-97536365D01*
X155739355Y-97472687D01*
X155718331Y-97423752D01*
X155703854Y-97387257D01*
X155695039Y-97360895D01*
X155691004Y-97342361D01*
X155690862Y-97329352D01*
X155693730Y-97319561D01*
X155708387Y-97298678D01*
X155734990Y-97278377D01*
X155735745Y-97278035D01*
X155755335Y-97271034D01*
X155772790Y-97270504D01*
X155789702Y-97278478D01*
G37*
X163340853Y-97269936D02*
X163407100Y-97275366D01*
X163462400Y-97284964D01*
X163513283Y-97299825D01*
X163584595Y-97332958D01*
X163635752Y-97375640D01*
X163666575Y-97427705D01*
X163676889Y-97488983D01*
X163675952Y-97520232D01*
X163670160Y-97545029D01*
X163655353Y-97566699D01*
X163627380Y-97594049D01*
X163619402Y-97601378D01*
X163595692Y-97622281D01*
X163573298Y-97639251D01*
X163549265Y-97653205D01*
X163520637Y-97665056D01*
X163484460Y-97675720D01*
X163437780Y-97686111D01*
X163377641Y-97697146D01*
X163301090Y-97709738D01*
X163205171Y-97724804D01*
X163186808Y-97727838D01*
X163124478Y-97741458D01*
X163079260Y-97757192D01*
X163052976Y-97774263D01*
X163047447Y-97791897D01*
X163050068Y-97796168D01*
X163068000Y-97811233D01*
X163096126Y-97827867D01*
X163108926Y-97833857D01*
X163130224Y-97841050D01*
X163156610Y-97845827D01*
X163192454Y-97848646D01*
X163242128Y-97849964D01*
X163310000Y-97850237D01*
X163327785Y-97850164D01*
X163395406Y-97849053D01*
X163460345Y-97846828D01*
X163515970Y-97843762D01*
X163555651Y-97840127D01*
X163591162Y-97836059D01*
X163620415Y-97835276D01*
X163639315Y-97839876D01*
X163654429Y-97850551D01*
X163658085Y-97854144D01*
X163674427Y-97885918D01*
X163673107Y-97921572D01*
X163654150Y-97952190D01*
X163633780Y-97963796D01*
X163597796Y-97976491D01*
X163555372Y-97986541D01*
X163551922Y-97987140D01*
X163509252Y-97992356D01*
X163451866Y-97996730D01*
X163386849Y-97999818D01*
X163321289Y-98001177D01*
X163305057Y-98001218D01*
X163206744Y-97998741D01*
X163126692Y-97990735D01*
X163061513Y-97976203D01*
X163007817Y-97954149D01*
X162962216Y-97923576D01*
X162921323Y-97883486D01*
X162901202Y-97857259D01*
X162889576Y-97827712D01*
X162886667Y-97787995D01*
X162886808Y-97776026D01*
X162890681Y-97743345D01*
X162903065Y-97716819D01*
X162928230Y-97685971D01*
X162949442Y-97663831D01*
X162975838Y-97641285D01*
X163005555Y-97622917D01*
X163041785Y-97607661D01*
X163087717Y-97594449D01*
X163146544Y-97582214D01*
X163221456Y-97569889D01*
X163315645Y-97556406D01*
X163360957Y-97549396D01*
X163428911Y-97534837D01*
X163478047Y-97518337D01*
X163507614Y-97500439D01*
X163516864Y-97481685D01*
X163505048Y-97462615D01*
X163471416Y-97443771D01*
X163468370Y-97442557D01*
X163422011Y-97430479D01*
X163359361Y-97422279D01*
X163285927Y-97418119D01*
X163207217Y-97418161D01*
X163128739Y-97422569D01*
X163056000Y-97431505D01*
X163052073Y-97432154D01*
X163003257Y-97439861D01*
X162971005Y-97443473D01*
X162950008Y-97442876D01*
X162934954Y-97437954D01*
X162920534Y-97428596D01*
X162919364Y-97427725D01*
X162894847Y-97397351D01*
X162890054Y-97361850D01*
X162905860Y-97327269D01*
X162910406Y-97322813D01*
X162940020Y-97307673D01*
X162987002Y-97294550D01*
X163047306Y-97283750D01*
X163116888Y-97275581D01*
X163191703Y-97270351D01*
X163267706Y-97268367D01*
X163340853Y-97269936D01*
G36*
X163340853Y-97269936D02*
G01*
X163407100Y-97275366D01*
X163462400Y-97284964D01*
X163513283Y-97299825D01*
X163584595Y-97332958D01*
X163635752Y-97375640D01*
X163666575Y-97427705D01*
X163676889Y-97488983D01*
X163675952Y-97520232D01*
X163670160Y-97545029D01*
X163655353Y-97566699D01*
X163627380Y-97594049D01*
X163619402Y-97601378D01*
X163595692Y-97622281D01*
X163573298Y-97639251D01*
X163549265Y-97653205D01*
X163520637Y-97665056D01*
X163484460Y-97675720D01*
X163437780Y-97686111D01*
X163377641Y-97697146D01*
X163301090Y-97709738D01*
X163205171Y-97724804D01*
X163186808Y-97727838D01*
X163124478Y-97741458D01*
X163079260Y-97757192D01*
X163052976Y-97774263D01*
X163047447Y-97791897D01*
X163050068Y-97796168D01*
X163068000Y-97811233D01*
X163096126Y-97827867D01*
X163108926Y-97833857D01*
X163130224Y-97841050D01*
X163156610Y-97845827D01*
X163192454Y-97848646D01*
X163242128Y-97849964D01*
X163310000Y-97850237D01*
X163327785Y-97850164D01*
X163395406Y-97849053D01*
X163460345Y-97846828D01*
X163515970Y-97843762D01*
X163555651Y-97840127D01*
X163591162Y-97836059D01*
X163620415Y-97835276D01*
X163639315Y-97839876D01*
X163654429Y-97850551D01*
X163658085Y-97854144D01*
X163674427Y-97885918D01*
X163673107Y-97921572D01*
X163654150Y-97952190D01*
X163633780Y-97963796D01*
X163597796Y-97976491D01*
X163555372Y-97986541D01*
X163551922Y-97987140D01*
X163509252Y-97992356D01*
X163451866Y-97996730D01*
X163386849Y-97999818D01*
X163321289Y-98001177D01*
X163305057Y-98001218D01*
X163206744Y-97998741D01*
X163126692Y-97990735D01*
X163061513Y-97976203D01*
X163007817Y-97954149D01*
X162962216Y-97923576D01*
X162921323Y-97883486D01*
X162901202Y-97857259D01*
X162889576Y-97827712D01*
X162886667Y-97787995D01*
X162886808Y-97776026D01*
X162890681Y-97743345D01*
X162903065Y-97716819D01*
X162928230Y-97685971D01*
X162949442Y-97663831D01*
X162975838Y-97641285D01*
X163005555Y-97622917D01*
X163041785Y-97607661D01*
X163087717Y-97594449D01*
X163146544Y-97582214D01*
X163221456Y-97569889D01*
X163315645Y-97556406D01*
X163360957Y-97549396D01*
X163428911Y-97534837D01*
X163478047Y-97518337D01*
X163507614Y-97500439D01*
X163516864Y-97481685D01*
X163505048Y-97462615D01*
X163471416Y-97443771D01*
X163468370Y-97442557D01*
X163422011Y-97430479D01*
X163359361Y-97422279D01*
X163285927Y-97418119D01*
X163207217Y-97418161D01*
X163128739Y-97422569D01*
X163056000Y-97431505D01*
X163052073Y-97432154D01*
X163003257Y-97439861D01*
X162971005Y-97443473D01*
X162950008Y-97442876D01*
X162934954Y-97437954D01*
X162920534Y-97428596D01*
X162919364Y-97427725D01*
X162894847Y-97397351D01*
X162890054Y-97361850D01*
X162905860Y-97327269D01*
X162910406Y-97322813D01*
X162940020Y-97307673D01*
X162987002Y-97294550D01*
X163047306Y-97283750D01*
X163116888Y-97275581D01*
X163191703Y-97270351D01*
X163267706Y-97268367D01*
X163340853Y-97269936D01*
G37*
X159488711Y-92962033D02*
X159584268Y-92979523D01*
X159748558Y-93024564D01*
X159902589Y-93087656D01*
X160048509Y-93169915D01*
X160188466Y-93272457D01*
X160324608Y-93396399D01*
X160368473Y-93441661D01*
X160480758Y-93573865D01*
X160573972Y-93711832D01*
X160650719Y-93859750D01*
X160713603Y-94021803D01*
X160717420Y-94033391D01*
X160767507Y-94219392D01*
X160800899Y-94415521D01*
X160817584Y-94617568D01*
X160817551Y-94821325D01*
X160800791Y-95022581D01*
X160767292Y-95217128D01*
X160717044Y-95400756D01*
X160673190Y-95518053D01*
X160595348Y-95680951D01*
X160501828Y-95834866D01*
X160394822Y-95976671D01*
X160276519Y-96103239D01*
X160149111Y-96211441D01*
X160071606Y-96264120D01*
X159944725Y-96333750D01*
X159807243Y-96392468D01*
X159665716Y-96437587D01*
X159526702Y-96466422D01*
X159512597Y-96468106D01*
X159469153Y-96471434D01*
X159411723Y-96474275D01*
X159346122Y-96476373D01*
X159278167Y-96477468D01*
X159151378Y-96475140D01*
X159003673Y-96462136D01*
X158865779Y-96437133D01*
X158732014Y-96399318D01*
X158708562Y-96390889D01*
X158660612Y-96371408D01*
X158604140Y-96346473D01*
X158542379Y-96317722D01*
X158478563Y-96286790D01*
X158415926Y-96255315D01*
X158357703Y-96224934D01*
X158307127Y-96197283D01*
X158267433Y-96173999D01*
X158241854Y-96156718D01*
X158233625Y-96147079D01*
X158235076Y-96143984D01*
X158246250Y-96124079D01*
X158267134Y-96088420D01*
X158296265Y-96039459D01*
X158332181Y-95979646D01*
X158373420Y-95911433D01*
X158418517Y-95837271D01*
X158599785Y-95540008D01*
X158646315Y-95584539D01*
X158737723Y-95662865D01*
X158851334Y-95737439D01*
X158969122Y-95791474D01*
X159089559Y-95824290D01*
X159211117Y-95835211D01*
X159252585Y-95833868D01*
X159370080Y-95815612D01*
X159480089Y-95776617D01*
X159581430Y-95717670D01*
X159672921Y-95639557D01*
X159753380Y-95543064D01*
X159821627Y-95428978D01*
X159837908Y-95394724D01*
X159883982Y-95271240D01*
X159919106Y-95132918D01*
X159943197Y-94983561D01*
X159956173Y-94826973D01*
X159957949Y-94666956D01*
X159948443Y-94507314D01*
X159927572Y-94351850D01*
X159895252Y-94204366D01*
X159851399Y-94068667D01*
X159813982Y-93982076D01*
X159749185Y-93868688D01*
X159673772Y-93775070D01*
X159587418Y-93700959D01*
X159489795Y-93646094D01*
X159380577Y-93610212D01*
X159259439Y-93593051D01*
X159190038Y-93591880D01*
X159067168Y-93606141D01*
X158951664Y-93641241D01*
X158844953Y-93696682D01*
X158748464Y-93771964D01*
X158732720Y-93786440D01*
X158702150Y-93812962D01*
X158679809Y-93830138D01*
X158669691Y-93834787D01*
X158667706Y-93832597D01*
X158653241Y-93813721D01*
X158629400Y-93780397D01*
X158598029Y-93735380D01*
X158560974Y-93681425D01*
X158520083Y-93621285D01*
X158477202Y-93557718D01*
X158434178Y-93493476D01*
X158392857Y-93431315D01*
X158355086Y-93373991D01*
X158322712Y-93324257D01*
X158297582Y-93284868D01*
X158281542Y-93258580D01*
X158276439Y-93248147D01*
X158281050Y-93243941D01*
X158300267Y-93238933D01*
X158309838Y-93236386D01*
X158337809Y-93225249D01*
X158379448Y-93206802D01*
X158430995Y-93182725D01*
X158488690Y-93154699D01*
X158499957Y-93149154D01*
X158677687Y-93069889D01*
X158847490Y-93010385D01*
X159011430Y-92970245D01*
X159171571Y-92949071D01*
X159329977Y-92946466D01*
X159488711Y-92962033D01*
G36*
X159488711Y-92962033D02*
G01*
X159584268Y-92979523D01*
X159748558Y-93024564D01*
X159902589Y-93087656D01*
X160048509Y-93169915D01*
X160188466Y-93272457D01*
X160324608Y-93396399D01*
X160368473Y-93441661D01*
X160480758Y-93573865D01*
X160573972Y-93711832D01*
X160650719Y-93859750D01*
X160713603Y-94021803D01*
X160717420Y-94033391D01*
X160767507Y-94219392D01*
X160800899Y-94415521D01*
X160817584Y-94617568D01*
X160817551Y-94821325D01*
X160800791Y-95022581D01*
X160767292Y-95217128D01*
X160717044Y-95400756D01*
X160673190Y-95518053D01*
X160595348Y-95680951D01*
X160501828Y-95834866D01*
X160394822Y-95976671D01*
X160276519Y-96103239D01*
X160149111Y-96211441D01*
X160071606Y-96264120D01*
X159944725Y-96333750D01*
X159807243Y-96392468D01*
X159665716Y-96437587D01*
X159526702Y-96466422D01*
X159512597Y-96468106D01*
X159469153Y-96471434D01*
X159411723Y-96474275D01*
X159346122Y-96476373D01*
X159278167Y-96477468D01*
X159151378Y-96475140D01*
X159003673Y-96462136D01*
X158865779Y-96437133D01*
X158732014Y-96399318D01*
X158708562Y-96390889D01*
X158660612Y-96371408D01*
X158604140Y-96346473D01*
X158542379Y-96317722D01*
X158478563Y-96286790D01*
X158415926Y-96255315D01*
X158357703Y-96224934D01*
X158307127Y-96197283D01*
X158267433Y-96173999D01*
X158241854Y-96156718D01*
X158233625Y-96147079D01*
X158235076Y-96143984D01*
X158246250Y-96124079D01*
X158267134Y-96088420D01*
X158296265Y-96039459D01*
X158332181Y-95979646D01*
X158373420Y-95911433D01*
X158418517Y-95837271D01*
X158599785Y-95540008D01*
X158646315Y-95584539D01*
X158737723Y-95662865D01*
X158851334Y-95737439D01*
X158969122Y-95791474D01*
X159089559Y-95824290D01*
X159211117Y-95835211D01*
X159252585Y-95833868D01*
X159370080Y-95815612D01*
X159480089Y-95776617D01*
X159581430Y-95717670D01*
X159672921Y-95639557D01*
X159753380Y-95543064D01*
X159821627Y-95428978D01*
X159837908Y-95394724D01*
X159883982Y-95271240D01*
X159919106Y-95132918D01*
X159943197Y-94983561D01*
X159956173Y-94826973D01*
X159957949Y-94666956D01*
X159948443Y-94507314D01*
X159927572Y-94351850D01*
X159895252Y-94204366D01*
X159851399Y-94068667D01*
X159813982Y-93982076D01*
X159749185Y-93868688D01*
X159673772Y-93775070D01*
X159587418Y-93700959D01*
X159489795Y-93646094D01*
X159380577Y-93610212D01*
X159259439Y-93593051D01*
X159190038Y-93591880D01*
X159067168Y-93606141D01*
X158951664Y-93641241D01*
X158844953Y-93696682D01*
X158748464Y-93771964D01*
X158732720Y-93786440D01*
X158702150Y-93812962D01*
X158679809Y-93830138D01*
X158669691Y-93834787D01*
X158667706Y-93832597D01*
X158653241Y-93813721D01*
X158629400Y-93780397D01*
X158598029Y-93735380D01*
X158560974Y-93681425D01*
X158520083Y-93621285D01*
X158477202Y-93557718D01*
X158434178Y-93493476D01*
X158392857Y-93431315D01*
X158355086Y-93373991D01*
X158322712Y-93324257D01*
X158297582Y-93284868D01*
X158281542Y-93258580D01*
X158276439Y-93248147D01*
X158281050Y-93243941D01*
X158300267Y-93238933D01*
X158309838Y-93236386D01*
X158337809Y-93225249D01*
X158379448Y-93206802D01*
X158430995Y-93182725D01*
X158488690Y-93154699D01*
X158499957Y-93149154D01*
X158677687Y-93069889D01*
X158847490Y-93010385D01*
X159011430Y-92970245D01*
X159171571Y-92949071D01*
X159329977Y-92946466D01*
X159488711Y-92962033D01*
G37*
X155685994Y-95242711D02*
X155685268Y-95320158D01*
X155676689Y-95471594D01*
X155657833Y-95608283D01*
X155627837Y-95734276D01*
X155585836Y-95853625D01*
X155530969Y-95970381D01*
X155464167Y-96081179D01*
X155373363Y-96194739D01*
X155269708Y-96290211D01*
X155153887Y-96367073D01*
X155026586Y-96424797D01*
X154888489Y-96462858D01*
X154850793Y-96468666D01*
X154771752Y-96474396D01*
X154683629Y-96474583D01*
X154594236Y-96469539D01*
X154511384Y-96459578D01*
X154442887Y-96445012D01*
X154412035Y-96435364D01*
X154334730Y-96405123D01*
X154257679Y-96367617D01*
X154188200Y-96326614D01*
X154133615Y-96285879D01*
X154110916Y-96266505D01*
X154088201Y-96248662D01*
X154076779Y-96241778D01*
X154075537Y-96243424D01*
X154072728Y-96261205D01*
X154070776Y-96294370D01*
X154070045Y-96337733D01*
X154070045Y-96433689D01*
X153211896Y-96433689D01*
X153246161Y-96372974D01*
X153251355Y-96363868D01*
X153259715Y-96349249D01*
X153267288Y-96335173D01*
X153274112Y-96320540D01*
X153280227Y-96304249D01*
X153285673Y-96285198D01*
X153290487Y-96262286D01*
X153294708Y-96234413D01*
X153298377Y-96200478D01*
X153301531Y-96159379D01*
X153304211Y-96110015D01*
X153306454Y-96051286D01*
X153308299Y-95982090D01*
X153309787Y-95901326D01*
X153310955Y-95807894D01*
X153311844Y-95700692D01*
X153312491Y-95578620D01*
X153312936Y-95440576D01*
X153313218Y-95285459D01*
X153313375Y-95112168D01*
X153313448Y-94919603D01*
X153313474Y-94706662D01*
X153313485Y-94570530D01*
X154115200Y-94570530D01*
X154115200Y-95720721D01*
X154185756Y-95767089D01*
X154226417Y-95790791D01*
X154280546Y-95816639D01*
X154329689Y-95834829D01*
X154393165Y-95850551D01*
X154489331Y-95861541D01*
X154573900Y-95853365D01*
X154647219Y-95825805D01*
X154709637Y-95778642D01*
X154761502Y-95711658D01*
X154803160Y-95624633D01*
X154834962Y-95517350D01*
X154837545Y-95505009D01*
X154846000Y-95443772D01*
X154851663Y-95366692D01*
X154854576Y-95279002D01*
X154854783Y-95185934D01*
X154852330Y-95092720D01*
X154847261Y-95004594D01*
X154839619Y-94926788D01*
X154829448Y-94864533D01*
X154828167Y-94858666D01*
X154799126Y-94748121D01*
X154764610Y-94657575D01*
X154723456Y-94584953D01*
X154674499Y-94528181D01*
X154616574Y-94485184D01*
X154584620Y-94469615D01*
X154511784Y-94450722D01*
X154430443Y-94447465D01*
X154345319Y-94459389D01*
X154261133Y-94486040D01*
X154182608Y-94526962D01*
X154115200Y-94570530D01*
X153313485Y-94570530D01*
X153313493Y-94472245D01*
X153313689Y-92787378D01*
X154219017Y-92787378D01*
X154194585Y-92824067D01*
X154188318Y-92833647D01*
X154162208Y-92879981D01*
X154144469Y-92927102D01*
X154132908Y-92982251D01*
X154125331Y-93052667D01*
X154124839Y-93059650D01*
X154123062Y-93097641D01*
X154121444Y-93151576D01*
X154119999Y-93218703D01*
X154118740Y-93296271D01*
X154117680Y-93381528D01*
X154116829Y-93471724D01*
X154116203Y-93564107D01*
X154115812Y-93655925D01*
X154115670Y-93744427D01*
X154115790Y-93826862D01*
X154116183Y-93900479D01*
X154116862Y-93962526D01*
X154117841Y-94010251D01*
X154119132Y-94040904D01*
X154120747Y-94051733D01*
X154128957Y-94047333D01*
X154150647Y-94032362D01*
X154180014Y-94010448D01*
X154228879Y-93976236D01*
X154317125Y-93929714D01*
X154415916Y-93896046D01*
X154528510Y-93874231D01*
X154658164Y-93863265D01*
X154750670Y-93862219D01*
X154872011Y-93872014D01*
X154982099Y-93896174D01*
X155085389Y-93935785D01*
X155186338Y-93991932D01*
X155231503Y-94022883D01*
X155336911Y-94114115D01*
X155428538Y-94223106D01*
X155506332Y-94349726D01*
X155570241Y-94493845D01*
X155620214Y-94655332D01*
X155656198Y-94834059D01*
X155678143Y-95029895D01*
X155683900Y-95185934D01*
X155685994Y-95242711D01*
G36*
X155685994Y-95242711D02*
G01*
X155685268Y-95320158D01*
X155676689Y-95471594D01*
X155657833Y-95608283D01*
X155627837Y-95734276D01*
X155585836Y-95853625D01*
X155530969Y-95970381D01*
X155464167Y-96081179D01*
X155373363Y-96194739D01*
X155269708Y-96290211D01*
X155153887Y-96367073D01*
X155026586Y-96424797D01*
X154888489Y-96462858D01*
X154850793Y-96468666D01*
X154771752Y-96474396D01*
X154683629Y-96474583D01*
X154594236Y-96469539D01*
X154511384Y-96459578D01*
X154442887Y-96445012D01*
X154412035Y-96435364D01*
X154334730Y-96405123D01*
X154257679Y-96367617D01*
X154188200Y-96326614D01*
X154133615Y-96285879D01*
X154110916Y-96266505D01*
X154088201Y-96248662D01*
X154076779Y-96241778D01*
X154075537Y-96243424D01*
X154072728Y-96261205D01*
X154070776Y-96294370D01*
X154070045Y-96337733D01*
X154070045Y-96433689D01*
X153211896Y-96433689D01*
X153246161Y-96372974D01*
X153251355Y-96363868D01*
X153259715Y-96349249D01*
X153267288Y-96335173D01*
X153274112Y-96320540D01*
X153280227Y-96304249D01*
X153285673Y-96285198D01*
X153290487Y-96262286D01*
X153294708Y-96234413D01*
X153298377Y-96200478D01*
X153301531Y-96159379D01*
X153304211Y-96110015D01*
X153306454Y-96051286D01*
X153308299Y-95982090D01*
X153309787Y-95901326D01*
X153310955Y-95807894D01*
X153311844Y-95700692D01*
X153312491Y-95578620D01*
X153312936Y-95440576D01*
X153313218Y-95285459D01*
X153313375Y-95112168D01*
X153313448Y-94919603D01*
X153313474Y-94706662D01*
X153313485Y-94570530D01*
X154115200Y-94570530D01*
X154115200Y-95720721D01*
X154185756Y-95767089D01*
X154226417Y-95790791D01*
X154280546Y-95816639D01*
X154329689Y-95834829D01*
X154393165Y-95850551D01*
X154489331Y-95861541D01*
X154573900Y-95853365D01*
X154647219Y-95825805D01*
X154709637Y-95778642D01*
X154761502Y-95711658D01*
X154803160Y-95624633D01*
X154834962Y-95517350D01*
X154837545Y-95505009D01*
X154846000Y-95443772D01*
X154851663Y-95366692D01*
X154854576Y-95279002D01*
X154854783Y-95185934D01*
X154852330Y-95092720D01*
X154847261Y-95004594D01*
X154839619Y-94926788D01*
X154829448Y-94864533D01*
X154828167Y-94858666D01*
X154799126Y-94748121D01*
X154764610Y-94657575D01*
X154723456Y-94584953D01*
X154674499Y-94528181D01*
X154616574Y-94485184D01*
X154584620Y-94469615D01*
X154511784Y-94450722D01*
X154430443Y-94447465D01*
X154345319Y-94459389D01*
X154261133Y-94486040D01*
X154182608Y-94526962D01*
X154115200Y-94570530D01*
X153313485Y-94570530D01*
X153313493Y-94472245D01*
X153313689Y-92787378D01*
X154219017Y-92787378D01*
X154194585Y-92824067D01*
X154188318Y-92833647D01*
X154162208Y-92879981D01*
X154144469Y-92927102D01*
X154132908Y-92982251D01*
X154125331Y-93052667D01*
X154124839Y-93059650D01*
X154123062Y-93097641D01*
X154121444Y-93151576D01*
X154119999Y-93218703D01*
X154118740Y-93296271D01*
X154117680Y-93381528D01*
X154116829Y-93471724D01*
X154116203Y-93564107D01*
X154115812Y-93655925D01*
X154115670Y-93744427D01*
X154115790Y-93826862D01*
X154116183Y-93900479D01*
X154116862Y-93962526D01*
X154117841Y-94010251D01*
X154119132Y-94040904D01*
X154120747Y-94051733D01*
X154128957Y-94047333D01*
X154150647Y-94032362D01*
X154180014Y-94010448D01*
X154228879Y-93976236D01*
X154317125Y-93929714D01*
X154415916Y-93896046D01*
X154528510Y-93874231D01*
X154658164Y-93863265D01*
X154750670Y-93862219D01*
X154872011Y-93872014D01*
X154982099Y-93896174D01*
X155085389Y-93935785D01*
X155186338Y-93991932D01*
X155231503Y-94022883D01*
X155336911Y-94114115D01*
X155428538Y-94223106D01*
X155506332Y-94349726D01*
X155570241Y-94493845D01*
X155620214Y-94655332D01*
X155656198Y-94834059D01*
X155678143Y-95029895D01*
X155683900Y-95185934D01*
X155685994Y-95242711D01*
G37*
X158227755Y-95643467D02*
X158227261Y-95677363D01*
X158223632Y-95752202D01*
X158216022Y-95814401D01*
X158203688Y-95870984D01*
X158159313Y-95997076D01*
X158096400Y-96111679D01*
X158016238Y-96212568D01*
X157919740Y-96298924D01*
X157807822Y-96369932D01*
X157681397Y-96424776D01*
X157541378Y-96462638D01*
X157505149Y-96468351D01*
X157426155Y-96474313D01*
X157337841Y-96474646D01*
X157248075Y-96469659D01*
X157164722Y-96459666D01*
X157095651Y-96444978D01*
X157009187Y-96414749D01*
X156899286Y-96360057D01*
X156801956Y-96292543D01*
X156739867Y-96241556D01*
X156736605Y-96337622D01*
X156733343Y-96433689D01*
X156310450Y-96433689D01*
X156299543Y-96433686D01*
X156205056Y-96433380D01*
X156118331Y-96432616D01*
X156041837Y-96431451D01*
X155978043Y-96429942D01*
X155929418Y-96428147D01*
X155898433Y-96426121D01*
X155887556Y-96423922D01*
X155887578Y-96423463D01*
X155894614Y-96407910D01*
X155910434Y-96385071D01*
X155914734Y-96379638D01*
X155925777Y-96365606D01*
X155935311Y-96352186D01*
X155943461Y-96337722D01*
X155950352Y-96320556D01*
X155956111Y-96299034D01*
X155960862Y-96271498D01*
X155964731Y-96236292D01*
X155967844Y-96191760D01*
X155970325Y-96136246D01*
X155972300Y-96068093D01*
X155973894Y-95985645D01*
X155975234Y-95887246D01*
X155976444Y-95771239D01*
X155977649Y-95635968D01*
X155978595Y-95524586D01*
X156779378Y-95524586D01*
X156779378Y-95720462D01*
X156824048Y-95776973D01*
X156836785Y-95792212D01*
X156883604Y-95834844D01*
X156944255Y-95870672D01*
X156954897Y-95875850D01*
X156993676Y-95892745D01*
X157028692Y-95902909D01*
X157068722Y-95908325D01*
X157122541Y-95910978D01*
X157140648Y-95911383D01*
X157216011Y-95908540D01*
X157276743Y-95896620D01*
X157328452Y-95874037D01*
X157376746Y-95839211D01*
X157381803Y-95834798D01*
X157430272Y-95779160D01*
X157458459Y-95715333D01*
X157467752Y-95640282D01*
X157460520Y-95568693D01*
X157435796Y-95505645D01*
X157391249Y-95447758D01*
X157336319Y-95400808D01*
X157263894Y-95360961D01*
X157177340Y-95333263D01*
X157074670Y-95317096D01*
X156953894Y-95311842D01*
X156945007Y-95311857D01*
X156889660Y-95312655D01*
X156842736Y-95314488D01*
X156808953Y-95317111D01*
X156793028Y-95320274D01*
X156788943Y-95326741D01*
X156784572Y-95348875D01*
X156781604Y-95387988D01*
X156779914Y-95445939D01*
X156779378Y-95524586D01*
X155978595Y-95524586D01*
X155978975Y-95479778D01*
X155980228Y-95337012D01*
X155981651Y-95191942D01*
X155983176Y-95066027D01*
X155984933Y-94957436D01*
X155987051Y-94864334D01*
X155989660Y-94784891D01*
X155992890Y-94717273D01*
X155996869Y-94659649D01*
X156001728Y-94610185D01*
X156007597Y-94567050D01*
X156014604Y-94528410D01*
X156022880Y-94492434D01*
X156032554Y-94457289D01*
X156043756Y-94421142D01*
X156056616Y-94382161D01*
X156072090Y-94339091D01*
X156114994Y-94246871D01*
X156168735Y-94167099D01*
X156237576Y-94092965D01*
X156315185Y-94029405D01*
X156419761Y-93967725D01*
X156539244Y-93920202D01*
X156674508Y-93886567D01*
X156826426Y-93866552D01*
X156995872Y-93859889D01*
X157053890Y-93860287D01*
X157119398Y-93862335D01*
X157180693Y-93866704D01*
X157242097Y-93874035D01*
X157307932Y-93884969D01*
X157382520Y-93900147D01*
X157470184Y-93920209D01*
X157575245Y-93945797D01*
X157603806Y-93952820D01*
X157679054Y-93970776D01*
X157749388Y-93986820D01*
X157810567Y-94000028D01*
X157858354Y-94009474D01*
X157888511Y-94014231D01*
X157916783Y-94017910D01*
X157943060Y-94023187D01*
X157953059Y-94027942D01*
X157949952Y-94036781D01*
X157939194Y-94064072D01*
X157921864Y-94106906D01*
X157899126Y-94162425D01*
X157872147Y-94227772D01*
X157842090Y-94300089D01*
X157835493Y-94315879D01*
X157796907Y-94406484D01*
X157765768Y-94476217D01*
X157741917Y-94525405D01*
X157725198Y-94554374D01*
X157715454Y-94563452D01*
X157707766Y-94561405D01*
X157681415Y-94551760D01*
X157642982Y-94536190D01*
X157597822Y-94516815D01*
X157503293Y-94478814D01*
X157366480Y-94437780D01*
X157225289Y-94412612D01*
X157187314Y-94408611D01*
X157084059Y-94406447D01*
X156996952Y-94419622D01*
X156925129Y-94448756D01*
X156867731Y-94494466D01*
X156823896Y-94557372D01*
X156792762Y-94638092D01*
X156773470Y-94737245D01*
X156766050Y-94796224D01*
X156927936Y-94789445D01*
X157054495Y-94787813D01*
X157205951Y-94794194D01*
X157354396Y-94808777D01*
X157490578Y-94830882D01*
X157555245Y-94845821D01*
X157687490Y-94888741D01*
X157809762Y-94945340D01*
X157919685Y-95014017D01*
X158014883Y-95093170D01*
X158092980Y-95181196D01*
X158151599Y-95276493D01*
X158175595Y-95328864D01*
X158201232Y-95399590D01*
X158217478Y-95470812D01*
X158225822Y-95549712D01*
X158227690Y-95640282D01*
X158227755Y-95643467D01*
G36*
X158227755Y-95643467D02*
G01*
X158227261Y-95677363D01*
X158223632Y-95752202D01*
X158216022Y-95814401D01*
X158203688Y-95870984D01*
X158159313Y-95997076D01*
X158096400Y-96111679D01*
X158016238Y-96212568D01*
X157919740Y-96298924D01*
X157807822Y-96369932D01*
X157681397Y-96424776D01*
X157541378Y-96462638D01*
X157505149Y-96468351D01*
X157426155Y-96474313D01*
X157337841Y-96474646D01*
X157248075Y-96469659D01*
X157164722Y-96459666D01*
X157095651Y-96444978D01*
X157009187Y-96414749D01*
X156899286Y-96360057D01*
X156801956Y-96292543D01*
X156739867Y-96241556D01*
X156736605Y-96337622D01*
X156733343Y-96433689D01*
X156310450Y-96433689D01*
X156299543Y-96433686D01*
X156205056Y-96433380D01*
X156118331Y-96432616D01*
X156041837Y-96431451D01*
X155978043Y-96429942D01*
X155929418Y-96428147D01*
X155898433Y-96426121D01*
X155887556Y-96423922D01*
X155887578Y-96423463D01*
X155894614Y-96407910D01*
X155910434Y-96385071D01*
X155914734Y-96379638D01*
X155925777Y-96365606D01*
X155935311Y-96352186D01*
X155943461Y-96337722D01*
X155950352Y-96320556D01*
X155956111Y-96299034D01*
X155960862Y-96271498D01*
X155964731Y-96236292D01*
X155967844Y-96191760D01*
X155970325Y-96136246D01*
X155972300Y-96068093D01*
X155973894Y-95985645D01*
X155975234Y-95887246D01*
X155976444Y-95771239D01*
X155977649Y-95635968D01*
X155978595Y-95524586D01*
X156779378Y-95524586D01*
X156779378Y-95720462D01*
X156824048Y-95776973D01*
X156836785Y-95792212D01*
X156883604Y-95834844D01*
X156944255Y-95870672D01*
X156954897Y-95875850D01*
X156993676Y-95892745D01*
X157028692Y-95902909D01*
X157068722Y-95908325D01*
X157122541Y-95910978D01*
X157140648Y-95911383D01*
X157216011Y-95908540D01*
X157276743Y-95896620D01*
X157328452Y-95874037D01*
X157376746Y-95839211D01*
X157381803Y-95834798D01*
X157430272Y-95779160D01*
X157458459Y-95715333D01*
X157467752Y-95640282D01*
X157460520Y-95568693D01*
X157435796Y-95505645D01*
X157391249Y-95447758D01*
X157336319Y-95400808D01*
X157263894Y-95360961D01*
X157177340Y-95333263D01*
X157074670Y-95317096D01*
X156953894Y-95311842D01*
X156945007Y-95311857D01*
X156889660Y-95312655D01*
X156842736Y-95314488D01*
X156808953Y-95317111D01*
X156793028Y-95320274D01*
X156788943Y-95326741D01*
X156784572Y-95348875D01*
X156781604Y-95387988D01*
X156779914Y-95445939D01*
X156779378Y-95524586D01*
X155978595Y-95524586D01*
X155978975Y-95479778D01*
X155980228Y-95337012D01*
X155981651Y-95191942D01*
X155983176Y-95066027D01*
X155984933Y-94957436D01*
X155987051Y-94864334D01*
X155989660Y-94784891D01*
X155992890Y-94717273D01*
X155996869Y-94659649D01*
X156001728Y-94610185D01*
X156007597Y-94567050D01*
X156014604Y-94528410D01*
X156022880Y-94492434D01*
X156032554Y-94457289D01*
X156043756Y-94421142D01*
X156056616Y-94382161D01*
X156072090Y-94339091D01*
X156114994Y-94246871D01*
X156168735Y-94167099D01*
X156237576Y-94092965D01*
X156315185Y-94029405D01*
X156419761Y-93967725D01*
X156539244Y-93920202D01*
X156674508Y-93886567D01*
X156826426Y-93866552D01*
X156995872Y-93859889D01*
X157053890Y-93860287D01*
X157119398Y-93862335D01*
X157180693Y-93866704D01*
X157242097Y-93874035D01*
X157307932Y-93884969D01*
X157382520Y-93900147D01*
X157470184Y-93920209D01*
X157575245Y-93945797D01*
X157603806Y-93952820D01*
X157679054Y-93970776D01*
X157749388Y-93986820D01*
X157810567Y-94000028D01*
X157858354Y-94009474D01*
X157888511Y-94014231D01*
X157916783Y-94017910D01*
X157943060Y-94023187D01*
X157953059Y-94027942D01*
X157949952Y-94036781D01*
X157939194Y-94064072D01*
X157921864Y-94106906D01*
X157899126Y-94162425D01*
X157872147Y-94227772D01*
X157842090Y-94300089D01*
X157835493Y-94315879D01*
X157796907Y-94406484D01*
X157765768Y-94476217D01*
X157741917Y-94525405D01*
X157725198Y-94554374D01*
X157715454Y-94563452D01*
X157707766Y-94561405D01*
X157681415Y-94551760D01*
X157642982Y-94536190D01*
X157597822Y-94516815D01*
X157503293Y-94478814D01*
X157366480Y-94437780D01*
X157225289Y-94412612D01*
X157187314Y-94408611D01*
X157084059Y-94406447D01*
X156996952Y-94419622D01*
X156925129Y-94448756D01*
X156867731Y-94494466D01*
X156823896Y-94557372D01*
X156792762Y-94638092D01*
X156773470Y-94737245D01*
X156766050Y-94796224D01*
X156927936Y-94789445D01*
X157054495Y-94787813D01*
X157205951Y-94794194D01*
X157354396Y-94808777D01*
X157490578Y-94830882D01*
X157555245Y-94845821D01*
X157687490Y-94888741D01*
X157809762Y-94945340D01*
X157919685Y-95014017D01*
X158014883Y-95093170D01*
X158092980Y-95181196D01*
X158151599Y-95276493D01*
X158175595Y-95328864D01*
X158201232Y-95399590D01*
X158217478Y-95470812D01*
X158225822Y-95549712D01*
X158227690Y-95640282D01*
X158227755Y-95643467D01*
G37*
X165775614Y-93111792D02*
X165776059Y-93243011D01*
X165776362Y-93390216D01*
X165776548Y-93554349D01*
X165776642Y-93736352D01*
X165776671Y-93937165D01*
X165776661Y-94157732D01*
X165776636Y-94398992D01*
X165776622Y-94661889D01*
X165776622Y-94704040D01*
X165776646Y-94964668D01*
X165776685Y-95203796D01*
X165776708Y-95422360D01*
X165776687Y-95621295D01*
X165776593Y-95801535D01*
X165776395Y-95964015D01*
X165776063Y-96109670D01*
X165775569Y-96239434D01*
X165774883Y-96354243D01*
X165773976Y-96455030D01*
X165772817Y-96542730D01*
X165771378Y-96618279D01*
X165769629Y-96682611D01*
X165767540Y-96736661D01*
X165765083Y-96781363D01*
X165762227Y-96817652D01*
X165758943Y-96846463D01*
X165755202Y-96868731D01*
X165750974Y-96885390D01*
X165746229Y-96897375D01*
X165740939Y-96905621D01*
X165735073Y-96911062D01*
X165728602Y-96914634D01*
X165721497Y-96917270D01*
X165713728Y-96919906D01*
X165705266Y-96923477D01*
X165700908Y-96925145D01*
X165692395Y-96927111D01*
X165679694Y-96928911D01*
X165661885Y-96930555D01*
X165638049Y-96932047D01*
X165607266Y-96933397D01*
X165568617Y-96934611D01*
X165521182Y-96935697D01*
X165464043Y-96936661D01*
X165396279Y-96937511D01*
X165316971Y-96938253D01*
X165225199Y-96938897D01*
X165120044Y-96939447D01*
X165000587Y-96939913D01*
X164865908Y-96940300D01*
X164715088Y-96940616D01*
X164547206Y-96940869D01*
X164361345Y-96941066D01*
X164156583Y-96941213D01*
X163932002Y-96941318D01*
X163686682Y-96941389D01*
X163419704Y-96941432D01*
X163381321Y-96941437D01*
X163115922Y-96941480D01*
X162872050Y-96941525D01*
X162648783Y-96941548D01*
X162445196Y-96941524D01*
X162260367Y-96941430D01*
X162093373Y-96941243D01*
X161943290Y-96940939D01*
X161809196Y-96940494D01*
X161690166Y-96939885D01*
X161585279Y-96939089D01*
X161493610Y-96938080D01*
X161414237Y-96936837D01*
X161346237Y-96935335D01*
X161288686Y-96933551D01*
X161240662Y-96931461D01*
X161201240Y-96929042D01*
X161169499Y-96926270D01*
X161144514Y-96923121D01*
X161125364Y-96919572D01*
X161111123Y-96915598D01*
X161100871Y-96911178D01*
X161093682Y-96906286D01*
X161088635Y-96900900D01*
X161084805Y-96894996D01*
X161081271Y-96888549D01*
X161077108Y-96881537D01*
X161076025Y-96879687D01*
X161073813Y-96874180D01*
X161071786Y-96865868D01*
X161069938Y-96853809D01*
X161068261Y-96837063D01*
X161066745Y-96814687D01*
X161065383Y-96785740D01*
X161064167Y-96749280D01*
X161063089Y-96704367D01*
X161062140Y-96650057D01*
X161061312Y-96585410D01*
X161060597Y-96509484D01*
X161059987Y-96421338D01*
X161059942Y-96412493D01*
X161351378Y-96412493D01*
X161355260Y-96413765D01*
X161378520Y-96415791D01*
X161420874Y-96417626D01*
X161480132Y-96419227D01*
X161554107Y-96420549D01*
X161640610Y-96421548D01*
X161737452Y-96422180D01*
X161842445Y-96422400D01*
X162540651Y-96422400D01*
X163695090Y-96422400D01*
X163694456Y-96346200D01*
X163695574Y-96304160D01*
X163701304Y-96268334D01*
X163713890Y-96230772D01*
X163735568Y-96182577D01*
X163738789Y-96175897D01*
X163764188Y-96126359D01*
X163790996Y-96078369D01*
X163813917Y-96041466D01*
X163818485Y-96034834D01*
X163840516Y-96003593D01*
X163872693Y-95958654D01*
X163913457Y-95902147D01*
X163961245Y-95836204D01*
X164014498Y-95762957D01*
X164071655Y-95684536D01*
X164131155Y-95603072D01*
X164191437Y-95520698D01*
X164250940Y-95439544D01*
X164308105Y-95361742D01*
X164361370Y-95289423D01*
X164409174Y-95224718D01*
X164449957Y-95169759D01*
X164482158Y-95126676D01*
X164504216Y-95097602D01*
X164514571Y-95084667D01*
X164519044Y-95080351D01*
X164523236Y-95078312D01*
X164526643Y-95080926D01*
X164529325Y-95089986D01*
X164531341Y-95107285D01*
X164532748Y-95134614D01*
X164533605Y-95173765D01*
X164533970Y-95226533D01*
X164533903Y-95294707D01*
X164533460Y-95380082D01*
X164532702Y-95484449D01*
X164531685Y-95609600D01*
X164531308Y-95654300D01*
X164530169Y-95775395D01*
X164528972Y-95876688D01*
X164527636Y-95960262D01*
X164526077Y-96028204D01*
X164524215Y-96082599D01*
X164521966Y-96125532D01*
X164519248Y-96159089D01*
X164515979Y-96185355D01*
X164512078Y-96206416D01*
X164507461Y-96224357D01*
X164499192Y-96250770D01*
X164475583Y-96312772D01*
X164449685Y-96365573D01*
X164424535Y-96402645D01*
X164423339Y-96404075D01*
X164421168Y-96408424D01*
X164423328Y-96412026D01*
X164431644Y-96414951D01*
X164447940Y-96417269D01*
X164474041Y-96419051D01*
X164511771Y-96420367D01*
X164562956Y-96421286D01*
X164629420Y-96421878D01*
X164712987Y-96422215D01*
X164815483Y-96422365D01*
X164938732Y-96422400D01*
X165470296Y-96422400D01*
X165431523Y-96364783D01*
X165425432Y-96355893D01*
X165414976Y-96341069D01*
X165405579Y-96327422D01*
X165397183Y-96313765D01*
X165389733Y-96298911D01*
X165383173Y-96281670D01*
X165377446Y-96260855D01*
X165372495Y-96235280D01*
X165368266Y-96203755D01*
X165364701Y-96165093D01*
X165361744Y-96118107D01*
X165359340Y-96061608D01*
X165357431Y-95994409D01*
X165355962Y-95915322D01*
X165354876Y-95823160D01*
X165354118Y-95716734D01*
X165353630Y-95594857D01*
X165353358Y-95456341D01*
X165353243Y-95299999D01*
X165353231Y-95124642D01*
X165353265Y-94929082D01*
X165353289Y-94712133D01*
X165353280Y-94589513D01*
X165353243Y-94384447D01*
X165353227Y-94200116D01*
X165353288Y-94035334D01*
X165353484Y-93888916D01*
X165353870Y-93759674D01*
X165354505Y-93646422D01*
X165355444Y-93547975D01*
X165356745Y-93463144D01*
X165358464Y-93390744D01*
X165360659Y-93329589D01*
X165363385Y-93278492D01*
X165366701Y-93236267D01*
X165370662Y-93201727D01*
X165375325Y-93173686D01*
X165380747Y-93150958D01*
X165386986Y-93132356D01*
X165394097Y-93116693D01*
X165402138Y-93102784D01*
X165411166Y-93089441D01*
X165421236Y-93075479D01*
X165432407Y-93059711D01*
X165472197Y-93001867D01*
X164412314Y-93001867D01*
X164450311Y-93064966D01*
X164464993Y-93090005D01*
X164479531Y-93117586D01*
X164491627Y-93145700D01*
X164501532Y-93176551D01*
X164509494Y-93212344D01*
X164515761Y-93255283D01*
X164520582Y-93307574D01*
X164524206Y-93371419D01*
X164526881Y-93449025D01*
X164528857Y-93542594D01*
X164530382Y-93654333D01*
X164531704Y-93786445D01*
X164532613Y-93906434D01*
X164533020Y-94023063D01*
X164532767Y-94118531D01*
X164531857Y-94192556D01*
X164530293Y-94244855D01*
X164528079Y-94275149D01*
X164525220Y-94283156D01*
X164522161Y-94279858D01*
X164504006Y-94258408D01*
X164474275Y-94221889D01*
X164434639Y-94172442D01*
X164386771Y-94112207D01*
X164332343Y-94043327D01*
X164273027Y-93967943D01*
X164210495Y-93888196D01*
X164146421Y-93806228D01*
X164082475Y-93724180D01*
X164020331Y-93644194D01*
X163961661Y-93568411D01*
X163908137Y-93498973D01*
X163861430Y-93438021D01*
X163823214Y-93387696D01*
X163795161Y-93350140D01*
X163778943Y-93327495D01*
X163733635Y-93255212D01*
X163693661Y-93175463D01*
X163672130Y-93107188D01*
X163668827Y-93049844D01*
X163674116Y-93001867D01*
X162542356Y-93002117D01*
X162581867Y-93032722D01*
X162591248Y-93040089D01*
X162654183Y-93094438D01*
X162722997Y-93162259D01*
X162799596Y-93245516D01*
X162885888Y-93346178D01*
X162903052Y-93366847D01*
X162943833Y-93416409D01*
X162993588Y-93477326D01*
X163050955Y-93547898D01*
X163114569Y-93626424D01*
X163183069Y-93711204D01*
X163255090Y-93800537D01*
X163329270Y-93892722D01*
X163344517Y-93911702D01*
X163404246Y-93986060D01*
X163478653Y-94078848D01*
X163551131Y-94169388D01*
X163620314Y-94255978D01*
X163684841Y-94336918D01*
X163743347Y-94410506D01*
X163794470Y-94475044D01*
X163836847Y-94528829D01*
X163869115Y-94570162D01*
X163889910Y-94597342D01*
X163897869Y-94608668D01*
X163896111Y-94612771D01*
X163883230Y-94633334D01*
X163858885Y-94669561D01*
X163824247Y-94719824D01*
X163780486Y-94782492D01*
X163728775Y-94855936D01*
X163670284Y-94938527D01*
X163606184Y-95028636D01*
X163537646Y-95124631D01*
X163465843Y-95224885D01*
X163391944Y-95327768D01*
X163317121Y-95431650D01*
X163242545Y-95534901D01*
X163169387Y-95635892D01*
X163098819Y-95732994D01*
X163032011Y-95824577D01*
X162970135Y-95909011D01*
X162914361Y-95984667D01*
X162865862Y-96049916D01*
X162825807Y-96103128D01*
X162795369Y-96142673D01*
X162774944Y-96168026D01*
X162728899Y-96222295D01*
X162678612Y-96278775D01*
X162631815Y-96328669D01*
X162540651Y-96422400D01*
X161842445Y-96422400D01*
X161911356Y-96422349D01*
X162009607Y-96422091D01*
X162099030Y-96421637D01*
X162177333Y-96421010D01*
X162242223Y-96420235D01*
X162291411Y-96419335D01*
X162322604Y-96418334D01*
X162333511Y-96417257D01*
X162332322Y-96414037D01*
X162322176Y-96396452D01*
X162305040Y-96370158D01*
X162296540Y-96357691D01*
X162287329Y-96343622D01*
X162279233Y-96329351D01*
X162272185Y-96313479D01*
X162266117Y-96294609D01*
X162260961Y-96271341D01*
X162256651Y-96242278D01*
X162253119Y-96206021D01*
X162250297Y-96161170D01*
X162248118Y-96106328D01*
X162246514Y-96040097D01*
X162245419Y-95961077D01*
X162244765Y-95867871D01*
X162244484Y-95759079D01*
X162244509Y-95633303D01*
X162244772Y-95489145D01*
X162245206Y-95325207D01*
X162245745Y-95140089D01*
X162246279Y-94961232D01*
X162246805Y-94802374D01*
X162247350Y-94663316D01*
X162247945Y-94542665D01*
X162248619Y-94439028D01*
X162249403Y-94351011D01*
X162250326Y-94277223D01*
X162251419Y-94216269D01*
X162252712Y-94166757D01*
X162254235Y-94127293D01*
X162256019Y-94096484D01*
X162258092Y-94072938D01*
X162260486Y-94055260D01*
X162263230Y-94042059D01*
X162266356Y-94031940D01*
X162269892Y-94023511D01*
X162273791Y-94015375D01*
X162293438Y-93978544D01*
X162312225Y-93948391D01*
X162313272Y-93946908D01*
X162327602Y-93924659D01*
X162333511Y-93911702D01*
X162332504Y-93911249D01*
X162315305Y-93909803D01*
X162278656Y-93908480D01*
X162224962Y-93907316D01*
X162156630Y-93906347D01*
X162076064Y-93905611D01*
X161985670Y-93905142D01*
X161887853Y-93904978D01*
X161442195Y-93904978D01*
X161439120Y-95081845D01*
X161436045Y-96258711D01*
X161409407Y-96317622D01*
X161397485Y-96342183D01*
X161380246Y-96372434D01*
X161367074Y-96389560D01*
X161359076Y-96397591D01*
X161351378Y-96412493D01*
X161059942Y-96412493D01*
X161059474Y-96320029D01*
X161059050Y-96204617D01*
X161058706Y-96074160D01*
X161058434Y-95927716D01*
X161058227Y-95764344D01*
X161058076Y-95583101D01*
X161057972Y-95383048D01*
X161057908Y-95163241D01*
X161057876Y-94922739D01*
X161057867Y-94660602D01*
X161057867Y-92469031D01*
X161096249Y-92430649D01*
X161123355Y-92406911D01*
X161150253Y-92395111D01*
X161186560Y-92392267D01*
X161238489Y-92392267D01*
X161238489Y-92480206D01*
X161240427Y-92530102D01*
X161259199Y-92640523D01*
X161296217Y-92741987D01*
X161349369Y-92833152D01*
X161416546Y-92912673D01*
X161495638Y-92979205D01*
X161584534Y-93031406D01*
X161681125Y-93067930D01*
X161783300Y-93087434D01*
X161888950Y-93088573D01*
X161995964Y-93070005D01*
X162102232Y-93030384D01*
X162199219Y-92972516D01*
X162284293Y-92897684D01*
X162353015Y-92809615D01*
X162403918Y-92710616D01*
X162435535Y-92602993D01*
X162446400Y-92489054D01*
X162446400Y-92392267D01*
X164066753Y-92392267D01*
X164277897Y-92392280D01*
X164482020Y-92392330D01*
X164665686Y-92392430D01*
X164829991Y-92392592D01*
X164976029Y-92392829D01*
X165104894Y-92393153D01*
X165217683Y-92393575D01*
X165315488Y-92394109D01*
X165399404Y-92394767D01*
X165470527Y-92395561D01*
X165529950Y-92396504D01*
X165578768Y-92397608D01*
X165618077Y-92398884D01*
X165648969Y-92400347D01*
X165672541Y-92402007D01*
X165689886Y-92403878D01*
X165702099Y-92405972D01*
X165710275Y-92408300D01*
X165715508Y-92410876D01*
X165721504Y-92414445D01*
X165728279Y-92417978D01*
X165734478Y-92421488D01*
X165740126Y-92425918D01*
X165745247Y-92432208D01*
X165749869Y-92441301D01*
X165754015Y-92454139D01*
X165757713Y-92471662D01*
X165760987Y-92494813D01*
X165763863Y-92524534D01*
X165766367Y-92561765D01*
X165768524Y-92607449D01*
X165770360Y-92662527D01*
X165771900Y-92727941D01*
X165773170Y-92804633D01*
X165774195Y-92893544D01*
X165775001Y-92995617D01*
X165775034Y-93001867D01*
X165775614Y-93111792D01*
G36*
X165775614Y-93111792D02*
G01*
X165776059Y-93243011D01*
X165776362Y-93390216D01*
X165776548Y-93554349D01*
X165776642Y-93736352D01*
X165776671Y-93937165D01*
X165776661Y-94157732D01*
X165776636Y-94398992D01*
X165776622Y-94661889D01*
X165776622Y-94704040D01*
X165776646Y-94964668D01*
X165776685Y-95203796D01*
X165776708Y-95422360D01*
X165776687Y-95621295D01*
X165776593Y-95801535D01*
X165776395Y-95964015D01*
X165776063Y-96109670D01*
X165775569Y-96239434D01*
X165774883Y-96354243D01*
X165773976Y-96455030D01*
X165772817Y-96542730D01*
X165771378Y-96618279D01*
X165769629Y-96682611D01*
X165767540Y-96736661D01*
X165765083Y-96781363D01*
X165762227Y-96817652D01*
X165758943Y-96846463D01*
X165755202Y-96868731D01*
X165750974Y-96885390D01*
X165746229Y-96897375D01*
X165740939Y-96905621D01*
X165735073Y-96911062D01*
X165728602Y-96914634D01*
X165721497Y-96917270D01*
X165713728Y-96919906D01*
X165705266Y-96923477D01*
X165700908Y-96925145D01*
X165692395Y-96927111D01*
X165679694Y-96928911D01*
X165661885Y-96930555D01*
X165638049Y-96932047D01*
X165607266Y-96933397D01*
X165568617Y-96934611D01*
X165521182Y-96935697D01*
X165464043Y-96936661D01*
X165396279Y-96937511D01*
X165316971Y-96938253D01*
X165225199Y-96938897D01*
X165120044Y-96939447D01*
X165000587Y-96939913D01*
X164865908Y-96940300D01*
X164715088Y-96940616D01*
X164547206Y-96940869D01*
X164361345Y-96941066D01*
X164156583Y-96941213D01*
X163932002Y-96941318D01*
X163686682Y-96941389D01*
X163419704Y-96941432D01*
X163381321Y-96941437D01*
X163115922Y-96941480D01*
X162872050Y-96941525D01*
X162648783Y-96941548D01*
X162445196Y-96941524D01*
X162260367Y-96941430D01*
X162093373Y-96941243D01*
X161943290Y-96940939D01*
X161809196Y-96940494D01*
X161690166Y-96939885D01*
X161585279Y-96939089D01*
X161493610Y-96938080D01*
X161414237Y-96936837D01*
X161346237Y-96935335D01*
X161288686Y-96933551D01*
X161240662Y-96931461D01*
X161201240Y-96929042D01*
X161169499Y-96926270D01*
X161144514Y-96923121D01*
X161125364Y-96919572D01*
X161111123Y-96915598D01*
X161100871Y-96911178D01*
X161093682Y-96906286D01*
X161088635Y-96900900D01*
X161084805Y-96894996D01*
X161081271Y-96888549D01*
X161077108Y-96881537D01*
X161076025Y-96879687D01*
X161073813Y-96874180D01*
X161071786Y-96865868D01*
X161069938Y-96853809D01*
X161068261Y-96837063D01*
X161066745Y-96814687D01*
X161065383Y-96785740D01*
X161064167Y-96749280D01*
X161063089Y-96704367D01*
X161062140Y-96650057D01*
X161061312Y-96585410D01*
X161060597Y-96509484D01*
X161059987Y-96421338D01*
X161059942Y-96412493D01*
X161351378Y-96412493D01*
X161355260Y-96413765D01*
X161378520Y-96415791D01*
X161420874Y-96417626D01*
X161480132Y-96419227D01*
X161554107Y-96420549D01*
X161640610Y-96421548D01*
X161737452Y-96422180D01*
X161842445Y-96422400D01*
X162540651Y-96422400D01*
X163695090Y-96422400D01*
X163694456Y-96346200D01*
X163695574Y-96304160D01*
X163701304Y-96268334D01*
X163713890Y-96230772D01*
X163735568Y-96182577D01*
X163738789Y-96175897D01*
X163764188Y-96126359D01*
X163790996Y-96078369D01*
X163813917Y-96041466D01*
X163818485Y-96034834D01*
X163840516Y-96003593D01*
X163872693Y-95958654D01*
X163913457Y-95902147D01*
X163961245Y-95836204D01*
X164014498Y-95762957D01*
X164071655Y-95684536D01*
X164131155Y-95603072D01*
X164191437Y-95520698D01*
X164250940Y-95439544D01*
X164308105Y-95361742D01*
X164361370Y-95289423D01*
X164409174Y-95224718D01*
X164449957Y-95169759D01*
X164482158Y-95126676D01*
X164504216Y-95097602D01*
X164514571Y-95084667D01*
X164519044Y-95080351D01*
X164523236Y-95078312D01*
X164526643Y-95080926D01*
X164529325Y-95089986D01*
X164531341Y-95107285D01*
X164532748Y-95134614D01*
X164533605Y-95173765D01*
X164533970Y-95226533D01*
X164533903Y-95294707D01*
X164533460Y-95380082D01*
X164532702Y-95484449D01*
X164531685Y-95609600D01*
X164531308Y-95654300D01*
X164530169Y-95775395D01*
X164528972Y-95876688D01*
X164527636Y-95960262D01*
X164526077Y-96028204D01*
X164524215Y-96082599D01*
X164521966Y-96125532D01*
X164519248Y-96159089D01*
X164515979Y-96185355D01*
X164512078Y-96206416D01*
X164507461Y-96224357D01*
X164499192Y-96250770D01*
X164475583Y-96312772D01*
X164449685Y-96365573D01*
X164424535Y-96402645D01*
X164423339Y-96404075D01*
X164421168Y-96408424D01*
X164423328Y-96412026D01*
X164431644Y-96414951D01*
X164447940Y-96417269D01*
X164474041Y-96419051D01*
X164511771Y-96420367D01*
X164562956Y-96421286D01*
X164629420Y-96421878D01*
X164712987Y-96422215D01*
X164815483Y-96422365D01*
X164938732Y-96422400D01*
X165470296Y-96422400D01*
X165431523Y-96364783D01*
X165425432Y-96355893D01*
X165414976Y-96341069D01*
X165405579Y-96327422D01*
X165397183Y-96313765D01*
X165389733Y-96298911D01*
X165383173Y-96281670D01*
X165377446Y-96260855D01*
X165372495Y-96235280D01*
X165368266Y-96203755D01*
X165364701Y-96165093D01*
X165361744Y-96118107D01*
X165359340Y-96061608D01*
X165357431Y-95994409D01*
X165355962Y-95915322D01*
X165354876Y-95823160D01*
X165354118Y-95716734D01*
X165353630Y-95594857D01*
X165353358Y-95456341D01*
X165353243Y-95299999D01*
X165353231Y-95124642D01*
X165353265Y-94929082D01*
X165353289Y-94712133D01*
X165353280Y-94589513D01*
X165353243Y-94384447D01*
X165353227Y-94200116D01*
X165353288Y-94035334D01*
X165353484Y-93888916D01*
X165353870Y-93759674D01*
X165354505Y-93646422D01*
X165355444Y-93547975D01*
X165356745Y-93463144D01*
X165358464Y-93390744D01*
X165360659Y-93329589D01*
X165363385Y-93278492D01*
X165366701Y-93236267D01*
X165370662Y-93201727D01*
X165375325Y-93173686D01*
X165380747Y-93150958D01*
X165386986Y-93132356D01*
X165394097Y-93116693D01*
X165402138Y-93102784D01*
X165411166Y-93089441D01*
X165421236Y-93075479D01*
X165432407Y-93059711D01*
X165472197Y-93001867D01*
X164412314Y-93001867D01*
X164450311Y-93064966D01*
X164464993Y-93090005D01*
X164479531Y-93117586D01*
X164491627Y-93145700D01*
X164501532Y-93176551D01*
X164509494Y-93212344D01*
X164515761Y-93255283D01*
X164520582Y-93307574D01*
X164524206Y-93371419D01*
X164526881Y-93449025D01*
X164528857Y-93542594D01*
X164530382Y-93654333D01*
X164531704Y-93786445D01*
X164532613Y-93906434D01*
X164533020Y-94023063D01*
X164532767Y-94118531D01*
X164531857Y-94192556D01*
X164530293Y-94244855D01*
X164528079Y-94275149D01*
X164525220Y-94283156D01*
X164522161Y-94279858D01*
X164504006Y-94258408D01*
X164474275Y-94221889D01*
X164434639Y-94172442D01*
X164386771Y-94112207D01*
X164332343Y-94043327D01*
X164273027Y-93967943D01*
X164210495Y-93888196D01*
X164146421Y-93806228D01*
X164082475Y-93724180D01*
X164020331Y-93644194D01*
X163961661Y-93568411D01*
X163908137Y-93498973D01*
X163861430Y-93438021D01*
X163823214Y-93387696D01*
X163795161Y-93350140D01*
X163778943Y-93327495D01*
X163733635Y-93255212D01*
X163693661Y-93175463D01*
X163672130Y-93107188D01*
X163668827Y-93049844D01*
X163674116Y-93001867D01*
X162542356Y-93002117D01*
X162581867Y-93032722D01*
X162591248Y-93040089D01*
X162654183Y-93094438D01*
X162722997Y-93162259D01*
X162799596Y-93245516D01*
X162885888Y-93346178D01*
X162903052Y-93366847D01*
X162943833Y-93416409D01*
X162993588Y-93477326D01*
X163050955Y-93547898D01*
X163114569Y-93626424D01*
X163183069Y-93711204D01*
X163255090Y-93800537D01*
X163329270Y-93892722D01*
X163344517Y-93911702D01*
X163404246Y-93986060D01*
X163478653Y-94078848D01*
X163551131Y-94169388D01*
X163620314Y-94255978D01*
X163684841Y-94336918D01*
X163743347Y-94410506D01*
X163794470Y-94475044D01*
X163836847Y-94528829D01*
X163869115Y-94570162D01*
X163889910Y-94597342D01*
X163897869Y-94608668D01*
X163896111Y-94612771D01*
X163883230Y-94633334D01*
X163858885Y-94669561D01*
X163824247Y-94719824D01*
X163780486Y-94782492D01*
X163728775Y-94855936D01*
X163670284Y-94938527D01*
X163606184Y-95028636D01*
X163537646Y-95124631D01*
X163465843Y-95224885D01*
X163391944Y-95327768D01*
X163317121Y-95431650D01*
X163242545Y-95534901D01*
X163169387Y-95635892D01*
X163098819Y-95732994D01*
X163032011Y-95824577D01*
X162970135Y-95909011D01*
X162914361Y-95984667D01*
X162865862Y-96049916D01*
X162825807Y-96103128D01*
X162795369Y-96142673D01*
X162774944Y-96168026D01*
X162728899Y-96222295D01*
X162678612Y-96278775D01*
X162631815Y-96328669D01*
X162540651Y-96422400D01*
X161842445Y-96422400D01*
X161911356Y-96422349D01*
X162009607Y-96422091D01*
X162099030Y-96421637D01*
X162177333Y-96421010D01*
X162242223Y-96420235D01*
X162291411Y-96419335D01*
X162322604Y-96418334D01*
X162333511Y-96417257D01*
X162332322Y-96414037D01*
X162322176Y-96396452D01*
X162305040Y-96370158D01*
X162296540Y-96357691D01*
X162287329Y-96343622D01*
X162279233Y-96329351D01*
X162272185Y-96313479D01*
X162266117Y-96294609D01*
X162260961Y-96271341D01*
X162256651Y-96242278D01*
X162253119Y-96206021D01*
X162250297Y-96161170D01*
X162248118Y-96106328D01*
X162246514Y-96040097D01*
X162245419Y-95961077D01*
X162244765Y-95867871D01*
X162244484Y-95759079D01*
X162244509Y-95633303D01*
X162244772Y-95489145D01*
X162245206Y-95325207D01*
X162245745Y-95140089D01*
X162246279Y-94961232D01*
X162246805Y-94802374D01*
X162247350Y-94663316D01*
X162247945Y-94542665D01*
X162248619Y-94439028D01*
X162249403Y-94351011D01*
X162250326Y-94277223D01*
X162251419Y-94216269D01*
X162252712Y-94166757D01*
X162254235Y-94127293D01*
X162256019Y-94096484D01*
X162258092Y-94072938D01*
X162260486Y-94055260D01*
X162263230Y-94042059D01*
X162266356Y-94031940D01*
X162269892Y-94023511D01*
X162273791Y-94015375D01*
X162293438Y-93978544D01*
X162312225Y-93948391D01*
X162313272Y-93946908D01*
X162327602Y-93924659D01*
X162333511Y-93911702D01*
X162332504Y-93911249D01*
X162315305Y-93909803D01*
X162278656Y-93908480D01*
X162224962Y-93907316D01*
X162156630Y-93906347D01*
X162076064Y-93905611D01*
X161985670Y-93905142D01*
X161887853Y-93904978D01*
X161442195Y-93904978D01*
X161439120Y-95081845D01*
X161436045Y-96258711D01*
X161409407Y-96317622D01*
X161397485Y-96342183D01*
X161380246Y-96372434D01*
X161367074Y-96389560D01*
X161359076Y-96397591D01*
X161351378Y-96412493D01*
X161059942Y-96412493D01*
X161059474Y-96320029D01*
X161059050Y-96204617D01*
X161058706Y-96074160D01*
X161058434Y-95927716D01*
X161058227Y-95764344D01*
X161058076Y-95583101D01*
X161057972Y-95383048D01*
X161057908Y-95163241D01*
X161057876Y-94922739D01*
X161057867Y-94660602D01*
X161057867Y-92469031D01*
X161096249Y-92430649D01*
X161123355Y-92406911D01*
X161150253Y-92395111D01*
X161186560Y-92392267D01*
X161238489Y-92392267D01*
X161238489Y-92480206D01*
X161240427Y-92530102D01*
X161259199Y-92640523D01*
X161296217Y-92741987D01*
X161349369Y-92833152D01*
X161416546Y-92912673D01*
X161495638Y-92979205D01*
X161584534Y-93031406D01*
X161681125Y-93067930D01*
X161783300Y-93087434D01*
X161888950Y-93088573D01*
X161995964Y-93070005D01*
X162102232Y-93030384D01*
X162199219Y-92972516D01*
X162284293Y-92897684D01*
X162353015Y-92809615D01*
X162403918Y-92710616D01*
X162435535Y-92602993D01*
X162446400Y-92489054D01*
X162446400Y-92392267D01*
X164066753Y-92392267D01*
X164277897Y-92392280D01*
X164482020Y-92392330D01*
X164665686Y-92392430D01*
X164829991Y-92392592D01*
X164976029Y-92392829D01*
X165104894Y-92393153D01*
X165217683Y-92393575D01*
X165315488Y-92394109D01*
X165399404Y-92394767D01*
X165470527Y-92395561D01*
X165529950Y-92396504D01*
X165578768Y-92397608D01*
X165618077Y-92398884D01*
X165648969Y-92400347D01*
X165672541Y-92402007D01*
X165689886Y-92403878D01*
X165702099Y-92405972D01*
X165710275Y-92408300D01*
X165715508Y-92410876D01*
X165721504Y-92414445D01*
X165728279Y-92417978D01*
X165734478Y-92421488D01*
X165740126Y-92425918D01*
X165745247Y-92432208D01*
X165749869Y-92441301D01*
X165754015Y-92454139D01*
X165757713Y-92471662D01*
X165760987Y-92494813D01*
X165763863Y-92524534D01*
X165766367Y-92561765D01*
X165768524Y-92607449D01*
X165770360Y-92662527D01*
X165771900Y-92727941D01*
X165773170Y-92804633D01*
X165774195Y-92893544D01*
X165775001Y-92995617D01*
X165775034Y-93001867D01*
X165775614Y-93111792D01*
G37*
%TD*%
M02*
